<?xml version="1.0" encoding="utf-8"?><!-- Uploaded to: SVG Repo, www.svgrepo.com, Generator: SVG Repo Mixer Tools -->
<svg width="800px" height="800px" viewBox="0 0 64 64" xmlns="http://www.w3.org/2000/svg"><path d="m11.23 31.71c-.16.12.21.66.21.66a2.35 2.35 0 0 0 .79-.12c.21-.13 0-.71-.08-.84a4.31 4.31 0 0 0 -.92.3zm11.54-14.09c.21.09.59-.75 4-3.08a11.13 11.13 0 0 1 6.79-1.88c.13-.08.13-1-.2-1a14.07 14.07 0 0 0 -11.17 5.54c-.12.17.38.34.58.42zm23.09-1c.21.13.21-.25.21-.46a5.07 5.07 0 0 0 -2.17-1.21c-.21.17-.13.5 0 .67a16.21 16.21 0 0 0 1.96.96zm1.75 2.83c-.25-.58-3-1.7-3-1.7s-.13.58 0 .79a18.75 18.75 0 0 0 3.17 1.58c.16 0 .08-.12-.17-.71zm.54 3.13a19.27 19.27 0 0 0 -3.08-1.71 3.11 3.11 0 0 0 -.13.71 28.64 28.64 0 0 0 3.21 1.54c.37.13.08-.29 0-.58zm11.17 10s.29-.75-.71-1.59-3.79.17-3.92.17-3.69-1.58-3.69-1.58a37.51 37.51 0 0 0 .11-5.58 15.54 15.54 0 0 0 -1.52-6.25l2.68-4a9.11 9.11 0 0 0 2.69.44c.88-.13 3.06-.75 3.25-3.88s-.75-7.12-5.62-5.81-2.59 6.85-2.59 6.85l-2.35 1.75s-1.06-2.1-4.65-4.37-8.79-2.88-15.35-1.25a24.69 24.69 0 0 0 -11.06 6.52l-4.23-3.75s1.33-2.5 0-4.33-6.92-1.51-8.63 1.79.29 5.45 2.46 6a5.46 5.46 0 0 0 4.13-.92l4.41 4.62a11.6 11.6 0 0 0 -2.29 5.25 16.34 16.34 0 0 0 .13 7l-2.25.84a1.59 1.59 0 0 0 -1.32-1.34c-1.25-.33-2.08 1.34-2.08 1.34a2.63 2.63 0 0 0 -.87.08c-.34.13-.92.71-1.13 2.17a2.75 2.75 0 0 0 1.33 2.41 2.48 2.48 0 0 0 .34 2.09c.71 1 2.16.54 3 0s.5-2.21.5-2.21l3.29-1.09s1 3 2.37 6.92 4.25 11.71 4.25 11.71a19 19 0 0 0 -4.7 1c-1.3.67-.63 5.29-.63 5.71s.67.46 4.58.42 10-.55 10.17-1-.08-7.42 0-7.75 1.25-.8 2.92-1a16.22 16.22 0 0 1 4 0c.25.12.29 7.12.25 7.67s1 1.33 4.5 1.33 8-.38 8.41-.67.42-3.33 0-5.21-4.33-1.91-4.33-1.91.67-2.29 1.79-5.84 3.71-12.16 3.71-12.16l3.17 1a8 8 0 0 0 .29 1.54 6.39 6.39 0 0 0 2.31 3.29 2.64 2.64 0 0 0 3.25-1.09 1.16 1.16 0 0 0 -.5-1.54 2.75 2.75 0 0 0 1.67-2.08c.41-1.75-1.54-1.79-1.54-1.79zm-50.21 1.79c0 .25.33 1.59-.21 2.09s-1.33.5-1.5.16-.29-1.16 0-1.21.58-.2.58-.33-.08-.71-.08-.71-1 .34-1.5-.21-.92-2.08-.4-2.45a1.38 1.38 0 0 1 1.54-.09c.21.25.8-.25.8-.25l-.55-.87s.21-1 1.05-.63 1 1.59 1.12 1.54 2.5-.95 2.63-.7.54 2.41.54 2.41-4.02 1-4.02 1.25zm43.79-28.62c1.41-.46 3.83-.21 4.37 3.08s-1.5 4.54-3.54 4.13a3.52 3.52 0 0 1 -2.87-3.88c.08-1.83.87-2.96 2.04-3.33zm-2.38 6.41c.13.17 1.21 1 1.09 1.17s-2.29 3-2.29 3a19.78 19.78 0 0 1 -1-2.21c.04-.12 2.2-1.96 2.2-1.96zm-41.83.42c-1.42.54-3.33.46-4.12-.75s-1.05-4.92 3.91-5.83c1.73-.32 3.21.41 3.46 2s-1.83 4-3.25 4.58zm2.46-.17c.12-.2.87-1.2.87-1.2a37.25 37.25 0 0 1 3.98 3.79 5 5 0 0 1 -.75 1.29s-4.25-3.67-4.1-3.88zm38.21 16.67a33.71 33.71 0 0 0 -3.63-1.58c-.08.12-.46.62 0 .75a22.81 22.81 0 0 1 3.46 2c0 .16-.33 2.7-.33 2.7s-2.75-1.54-2.88-1.5-.29.59-.12.63 2.87 1.67 2.83 1.92-3.69 11.75-3.83 11.79a21.14 21.14 0 0 1 -2.17-.92s-.33.59-.17.67 2.13.87 2 1.08-.38 1-.38 1a13.08 13.08 0 0 0 -2.33-1.08c-.13.12-.34.42-.13.58a23.7 23.7 0 0 1 2.32 1.09c0 .16 0 .83-.12.83a22.27 22.27 0 0 0 -2.52-1.04c-.21.08-.46.5-.21.66s2.46 1.09 2.42 1.34a5.33 5.33 0 0 1 -.38.87 22.57 22.57 0 0 0 -2.25-1.29c-.12 0-.29.62-.17.71a13.53 13.53 0 0 1 2 1.29c0 .12-2.66.29-2.7.62a1.91 1.91 0 0 0 0 .92c.08.17 3 0 4.83.25s2.63.21 2.71.67.29 3.29 0 3.37-5.71 0-7.08-.08-2.13-.33-2.13-.58-.08-7.75-.29-8-3.25-.63-5.71-.5a14 14 0 0 0 -4.46 1 8.58 8.58 0 0 0 -1.29-1.05c-.17 0-.58.3-.46.5s1.25 1.13 1.25 1.25a4 4 0 0 1 -.08.5 20.39 20.39 0 0 0 -3-1.87c-.17.12-.37.62-.17.75a29.24 29.24 0 0 1 3.13 2.33c0 .21.08 1.21.08 1.21s-2.62-1.75-2.79-1.5-.21.79-.08.88 2.79 1.25 2.83 1.54a22.45 22.45 0 0 1 0 3.75c-.16.21-10.62 1-10.75.58s-.12-3.5.17-3.71 6.46-1 6.54-1.21.08-.75-.12-.79-1.38 0-1.42-.08-5.54-14.13-6.75-19.21-1.67-11.83 1.97-16.62 5.29-5.42 8.29-6.79c2.44-1.12 8.67-1.92 13-1.25s8.71 5.87 9.71 9.54a50.26 50.26 0 0 1 1.34 7.58s-3.63-2.16-3.8-2-.2.75-.08.84 3.79 1.66 3.88 2 .02 2.66.02 2.66zm10.37 5.92a5.3 5.3 0 0 1 -1.58 1.21c-.17 0-.25.5-.08.62s1.08.42.87.79a1.58 1.58 0 0 1 -2.42.46c-1.2-1-1.58-3.67-1.62-3.87a2.43 2.43 0 0 0 -.5-.92 35.91 35.91 0 0 1 -3.5-1.13c0-.12.29-1.58.29-1.58.17.08 3.58 1.54 3.71 1.58s2-.87 3-.58.75.83.66 1.08-.37.75-.16.92.21.29.33.29.54-.62.88-.41a1.16 1.16 0 0 1 .12 1.54zm-16.54.08c-.33-.08-1.87 1.92-4.42 3.17s-6 .8-6.2.83c-.42.08-.09 2 .16 2.21s3.38.12 6.54-1.29a10 10 0 0 0 4.63-4.17c.1-.17-.38-.67-.71-.75zm-1.33-12.29c-2.09-4.42-7.46-5.45-11.17-4.63-11.58 2.59-9.42 14.63-6.42 17.5s9.46 3 14.3.21 5.37-8.66 3.29-13.08zm-16.47 11.81c-2.59-2.48-4.46-12.88 5.54-15.11 3.2-.71 7.84.18 9.64 4s1.33 8.92-2.84 11.29-9.73 2.3-12.34-.18zm6.07-9.6a3.27 3.27 0 0 0 -1.94 5.29c.91.87 2.86.89 4.32.06a3 3 0 0 0 -2.38-5.35zm1.19 3.13c-.17-.08-1.17-1.67-.42-2a1.6 1.6 0 0 1 1.59.46c.41.41-1 1.57-1.17 1.49z" fill="#1d1d1b"/></svg>