<?xml version="1.0" encoding="utf-8"?><!-- Uploaded to: SVG Repo, www.svgrepo.com, Generator: SVG Repo Mixer Tools -->
<svg width="800px" height="800px" viewBox="0 0 64 64" xmlns="http://www.w3.org/2000/svg"><path d="m30.62 11.42c.21-.21-.83-2.66-1-2.83s-.9-.05-.83.17.79 2.5 1 2.79.62.08.83-.13zm1.46-.58c.25-.17-.33-1.54-.62-1.83s-.81-.29-.75-.13a10.9 10.9 0 0 0 .75 2.12c.2.13.37 0 .62-.16zm-8.08 4.16c0-1.83-2-2.06-3.17-1.41a1.75 1.75 0 0 0 -.33 2.83c.75.71 3.5.38 3.5-1.42zm-2.46-.7c.48-.29 1.42.08 1.42.7s-1 .84-1.42.67a.78.78 0 0 1 .04-1.41zm6.71 2.62c1.08.08 3-.29 3.33-2s-2.33-2.65-3.58-1.87c-3.34 2.08-.79 3.75.29 3.83zm.21-3.12c.44-.22 2-.21 2 .87s-1.42 1.5-2.33 1.25-.84-1.58.37-2.16zm19.91 7.5c-1.54.62-1.37 1.79-.41 2.5s2.79-.05 2.75-1.09a1.82 1.82 0 0 0 -2.3-1.45zm.3 1.7c-.31-.23-.37-.62.14-.82a.6.6 0 0 1 .77.46c.01.36-.58.57-.91.36zm-31.51 5.76a9.52 9.52 0 0 0 -1.91 2.41 5.34 5.34 0 0 0 -.71 2.63c.12.58.67.12 1 0s.17-.8.54-1.75a15.78 15.78 0 0 1 2-2.67c.17-.33-.64-.81-.92-.62zm20.21 1.54c-.16-.71-.79-.92-1.66-1a5.88 5.88 0 0 1 -2.42-1.13c-1.08-.67-2.75-1.75-4.67-1.25-5.41 1.42-4 7-2.41 8.29s3 1 4.37.71 1.71-1.12 2.71-2 3.08-.87 3.58-1.08.67-1.84.5-2.54zm-1.29 1.83c-.54.17-2.5.13-3.46.79s-1.62 2.29-3.71 2.08a3.38 3.38 0 0 1 -2.91-3.2 3.69 3.69 0 0 1 3-3.92 5.56 5.56 0 0 1 3.29.83c1.12.67.87.8 2 1.09s1.87.41 2 .87.33 1.33-.21 1.46zm-.5 4.87a3.13 3.13 0 0 0 -1.21 4.67c1.21 1.42 3.92 1.13 4.84-1.42a2.6 2.6 0 0 0 -3.63-3.25zm2.67 3a1.84 1.84 0 0 1 -3.08.91 2 2 0 0 1 .77-3 1.65 1.65 0 0 1 2.31 2.09zm-1.46-19.24c.42.12 9.5-10.17 9.62-10.5s-.7-1.09-1.12-1.09-9.85 9.77-9.75 10.25a3.41 3.41 0 0 0 1.25 1.34zm-18.25-1.55c2 .63 5.08-.2 6.87-.33s4.75.54 6.13.46 3.21-1.92 3.79-5-.5-7-3.37-8-6.34.62-7.92 1.2-3.36.46-5.83 1.67-2.42 2.55-2.46 4 .83 5.38 2.79 6zm7.71-11a2.36 2.36 0 0 1 -1.59 2.09 1.92 1.92 0 0 1 -2.2-1.09c-.05-.21 3.66-1.29 3.79-1.04zm-7.46 2.34a12.86 12.86 0 0 1 2.37-1 3.63 3.63 0 0 0 3.21 1.75 3.57 3.57 0 0 0 3.09-2.38c.29-.71.16-1.25.29-1.25s2.87-.91 4.29.92a7.19 7.19 0 0 1 1.21 6.25c-.63 1.67-2.13 2.92-3 2.92a37.37 37.37 0 0 0 -6.59-.42c-2.79.25-3.25.46-3.79.21a6.45 6.45 0 0 1 -2-3.46 4.47 4.47 0 0 1 .92-3.58zm17.71-2.5a10 10 0 0 0 2.37-2.21c.09-.25-.12-.67-.62-.83s-2.79 1.25-2.71 2c.04.37.58 1.08.96 1.04zm-23.38 15.25c.34-.59-1.83 0-2.41.25a6.83 6.83 0 0 0 -2.92 3.33 8.79 8.79 0 0 0 -1.17 4.12 1.94 1.94 0 0 0 1.79.29c.42-.21.3-1.67.92-3.71s3.46-3.7 3.79-4.28zm39.42-9.54c.33.08 2.58-2.84 2.71-3.21s-.63-.46-1-.5-3 2.51-2.79 2.75a3.65 3.65 0 0 0 1.08.96zm-13.88 13.08c-2.37-1.42-3.91-4-7.08-4.25s-5.29 1.56-8 1.92c-3.83.5-7.17 1-9.83 3.12a11.36 11.36 0 0 0 -4 8.13 5 5 0 0 0 1.67 4.45c.79.75-.13 2.25-.25 3.5a11.39 11.39 0 0 0 3.91 7.88c2.88 2.17 4.46 2 7 2s3.58.54 7.5 1.25 5 .17 7.88-2.46 1.54-5.54 1.79-6.08 1.54-1.21 2.71-2.54 2-5.67 1.66-8.67-2.62-6.83-4.96-8.25zm-24.83 13.58a6 6 0 0 0 -.71-1.29c.17-.12 1-1.12 2.09-.71s2 2.84 1.62 3.13a12.62 12.62 0 0 1 -3.21 1.12c-.08-.12.38-1.67.21-2.25zm27.83-1.29c-.79 3.08-1.12 3.71-2.12 4.46s-2.21 1.87-2.25 2.29 1 3.63-1 5.42-3.5 2.37-4.54 2.29-4.5-1.38-8-1.42-5.63-.17-7.21-1.37a11.64 11.64 0 0 1 -3.29-5.34c0-.75-.21-1.45.08-1.58s3.21-.62 4.08-1.33.71-2.29 0-3.38-1.25-1.96-2.41-2.17-2.75 1.17-2.75 1.17a3.73 3.73 0 0 1 -.55-2.75c.3-1.42 1.05-4.71 3.3-6.75s5.75-2.41 8.21-2.71c1.45-.17 3.12-1 5.5-1.25a8.32 8.32 0 0 1 6.5 1.67 25.16 25.16 0 0 1 5 4.83 9.39 9.39 0 0 1 1.45 7.92zm9.75-1.67c-.87 0-1.53 1-1.75 1-.41.09-.95 0-1.58 0a3.24 3.24 0 0 0 -2.62.91c-.92 1-1.38 5.38-.13 6.42s3.25.58 4 .46 1 .21 1.87.25a4.27 4.27 0 0 0 3.63-2c.92-1.59.12-4.34-.33-5.38a3.87 3.87 0 0 0 -3.09-1.66zm-2.16 7.13c-.34 0-.59.08-.63-.13s0-1.5-.21-1.54-.7-.25-.75 0 .13 1.88-.08 1.75-.5.13-.87-.46-.5-3.62-.13-4.08c.14-.17.92-.37.88-.17s-.59 1.13.5 1.59a3.52 3.52 0 0 1 1.41.91s.21 2.13-.12 2.13zm0-3.25c-1-.54-1-1.63 0-1.75 1.38-.17 2 .75 1.87 1.33s-.87.96-1.87.42zm4.12 1c-.16 1.5-.37 1.83-.66 1.92s-.25.25-.3.08 0-1.46-.25-1.5-.79 0-.83.12.21 1.8-.12 1.75-.88 0-.92-.25a7.77 7.77 0 0 1 -.08-2c.12 0 1.54-.09 1.83-1a3.12 3.12 0 0 0 -.04-1.87c.12-.08.54-.25.75-.08a4 4 0 0 1 .62 2.83zm2.92-25.67c-1.79-2.37-5.63-1.08-6.38-.87s-2.8-.2-3.75.54c-3 2.33-2.25 6.46-2.12 7.5a2.53 2.53 0 0 0 2.17 2c.91.08 3.62 1.29 5.08 1.62s4 .21 5-1.37 1.79-7.04 0-9.42zm-1.29 7.71c-.42-.29-.88-1.67-1.13-1.67s-.79.21-.67.5 1.38 1.71 1.13 2-.71.63-.92.46-.66-2.21-1.08-2.17-1 .25-.83.5.66 1.46.41 1.5-2.12-.58-3-.66-2.17.12-2.62-1.09-.46-4.45 1-5.91c.35-.34 1.54-.42 1.62-.17s.29 2 1.46 2.67a2.66 2.66 0 0 0 2.58.37c.71-.25 1.21-.62 1.13-.79s-.33-.67-.5-.67-1.67 1.09-2.67.25-.62-2-.16-2.16 3.29-.59 4 .37.62 6.96.25 6.67zm-5.38 6.83c.13-.41-.08-.33-.46-.41s-3 2.18-3.33 2.58c-.13.17.75 1.17 1.08 1.17s2.55-2.92 2.67-3.34zm-18.62 26.25c-.25-.08-1 .21-3.92.17a4.88 4.88 0 0 1 -3.54-1.17c-.33 0-1 .63-1.25 1s.62.55 1.12.84a9.42 9.42 0 0 0 4 .71 8.42 8.42 0 0 0 3.84-.55c0-.16 0-.91-.25-1zm.16-11.46c-1.33-.67-1.62-2.34-2.2-2.88s-3.77-.4-4.21-.21c-1.63.71-2.59 2.75-2.92 3.25a2.88 2.88 0 0 0 .88 2.71 8.4 8.4 0 0 0 3.87.58c1.67 0 3.79 1 4.58.92a2.25 2.25 0 0 0 2-2.08c-.04-1.16-.66-1.62-2-2.29zm0 3.45a8.25 8.25 0 0 0 -4.12-1c-2.21.09-2.58.38-3.21 0s-1.12-1.25-.92-1.75a8.84 8.84 0 0 1 2.55-2.79c.68-.28 2.62-.29 2.91.21s.67 1.67 1.29 2 2.59 1.18 2.55 1.88-.92 1.55-1.05 1.46zm-8.7-7.08c.29-.21-.67-4.71-.88-5.17a.56.56 0 0 0 -1 0 32.31 32.31 0 0 0 1.12 5.33c.17.39.46.06.76-.15zm1.83-1.25c.37-.12-.42-3.67-.54-3.92a.56.56 0 0 0 -.84 0c-.25.38.34 3.42.5 3.88s.5.18.88.05zm2.33 0a18.89 18.89 0 0 0 -.37-3.38c-.13-.2-.74-.36-.84-.08a25.7 25.7 0 0 0 .38 3.34c.12.3.75.26.83.09zm2.46.46c.5 0-.33-3.21-.58-3.46a.46.46 0 0 0 -.71 0 9.2 9.2 0 0 0 .29 3c.25.64.5.47 1 .43zm1.75-2.29c.29-.13.25-1 .17-1.46s-.66-.26-.84-.09a3.32 3.32 0 0 0 -.08 1.59c.13.38.46.05.75-.07zm-14.83 5.92c0 .38.12 1.46.42 1.59a.71.71 0 0 0 .66-.09c.21-.08-.16-1.12-.29-1.5s-.79-.31-.79 0z" fill="#1d1d1b"/></svg>