<?xml version="1.0" encoding="utf-8"?><!-- Uploaded to: SVG Repo, www.svgrepo.com, Generator: SVG Repo Mixer Tools -->
<svg width="800px" height="800px" viewBox="0 0 64 64" xmlns="http://www.w3.org/2000/svg"><path d="m39.93 18.61c.21.08.62-.59.62-.75s-.91-.71-1.12-1.46.58-1.21.71-1.33-.61-.62-.71-.55a2.31 2.31 0 0 0 -.92 1.88 3.62 3.62 0 0 0 1.42 2.21zm-9.34 11.25a2.58 2.58 0 0 0 -1.83 1 3.62 3.62 0 0 0 -.58 2 1.21 1.21 0 0 0 .79.21c.21 0 .12-1.09.62-1.59s1.25-.62 1.34-.75-.04-.9-.34-.87zm-1-2.34c-3.16 1.59-4 3.75-3.91 7.3s8.83 5.87 11-.21c2.49-7.12-5.13-8.09-7.13-7.09zm4.17 4.67c.12.13 1.5 1.17 1.5 1.42a5.86 5.86 0 0 1 -.42 1.16 21.76 21.76 0 0 0 -2-2c-.16 0-.62.46-.62.46l2.21 2.29-.71.5s-2.21-2.54-2.33-2.54-.59.17-.5.33a30.62 30.62 0 0 1 2.11 2.71 2.46 2.46 0 0 1 -.58.3s-2.21-2.42-2.34-2.42-.79.33-.66.5 1.8 2.1 1.8 2.1a4.74 4.74 0 0 1 -3.33-1.83c-1.21-1.71-.88-4.71 2.37-6.29 1.26-.61 3.21.25 4.13.87s1 2.88 1 2.88-1.13-1.08-1.3-1-.5.44-.37.56zm25.24-13.04c1.21-4.92-.46-6.79-5-6.87a17.62 17.62 0 0 0 -8.46 2.33s.09.12-1.29-1.54a5.07 5.07 0 0 0 -3.83-1.54 9.1 9.1 0 0 0 -.88-3.92c-1-2.29-7-5-10.91-2.67s-5.58 9.88-5.75 9.84c-9.08-2.38-15.62-.63-17.37 3.29s1.79 7.21 1.79 7.21a3.88 3.88 0 0 0 .25 4.5c1.75 2.41 5 1.7 5 1.7l2.45 2.88s-6.83 7-8.58 10-2.88 7.46.2 8.91a7.68 7.68 0 0 0 6.21-.12s3.54 4 6.79 1.92a4.72 4.72 0 0 0 2.09-5.42l1-.46s1.75 9.46 8 10.71 8.54-10.25 8.54-10.25a58 58 0 0 0 8.5 2.17c6.18 1.18 8.39-3.75 7.09-9.82a19 19 0 0 0 -6.12-9.88s9.04-8.05 10.28-12.97zm-46.16 9.75s-.95-2-1.2-2-.59.25-.5.41a14.07 14.07 0 0 1 1.08 1.92 2.78 2.78 0 0 1 -.71.38 11.37 11.37 0 0 0 -1-1.8c-.17 0-.71.17-.58.34a6.48 6.48 0 0 1 .71 1.58 2.35 2.35 0 0 1 -1.55-1.83c-.08-1.17.17-2.29 1.42-2.67 1.45-.43 2.92.59 3 1.54a4.87 4.87 0 0 1 -.67 2.13zm6.38 24.1a13.84 13.84 0 0 0 -1.33-2c-.21 0-.71.34-.55.5s1.46 1.84 1.34 2-.71.25-.71.25a17.1 17.1 0 0 0 -1.5-2.41c-.21 0-.79.08-.67.29a15.73 15.73 0 0 1 1.09 2.29c-.13 0-2.05-.37-2.05-2.08s.46-2.63 1.71-3.17 2.54-.21 2.88 1.29a6.32 6.32 0 0 1 -.21 3.04zm2-4.91s-.88-1.88-3.79-1.38a6.82 6.82 0 0 0 -4.5 3.29 5.41 5.41 0 0 0 -.59 1.84s-3.33 1-4.7-.54-.46-5.38 1.79-8.55a55.74 55.74 0 0 1 6.91-7.25 36.87 36.87 0 0 0 3 2.34c1.38.91 1.92 1.21 1.92 1.21a32.75 32.75 0 0 0 .25 5c.33 1.79.54 3.62.54 3.62zm-.33-13.88c.12 1.34.16 2.25.16 2.25s-1.33-.87-1.83-1.25a6.58 6.58 0 0 1 -1-1.08 10.49 10.49 0 0 1 2.71-2.42 13.51 13.51 0 0 0 -.04 2.52zm.5-10.12c-.25 3.6-.39 4.91-.39 4.91a21.49 21.49 0 0 0 -4.33 4 7.3 7.3 0 0 1 -2.67-2.43s2.33-2.79 1-5.38-3.79-1.83-4.63-1.62a6 6 0 0 0 -1.66.79s-2.88-3.67-.5-5.92 6.58-2.91 10.21-2.54 4.08 1 4.08 1a53 53 0 0 0 -1.11 7.21zm17.91-10.73c1.93-.64 5 1 4 4.08a3.31 3.31 0 0 1 -5.83 1 3.39 3.39 0 0 1 1.83-5.08zm2.63 15.37a21.27 21.27 0 0 1 2.62 1.84c1.17.87 1.46 1.16 1.42 1.33a28 28 0 0 1 -3.13 3 15.3 15.3 0 0 1 -2.2 1.5s.66-2.83 1-4.54a24.17 24.17 0 0 0 .29-3.13zm-1.93-7.12-.11 3.39-5.34-3.45 1.88-1.25a6 6 0 0 0 1.62 1 8 8 0 0 0 1.95.31zm-11.45-14.21c2.09-1.92 5.13-2.17 7.92-.12s2.21 4.33 2.21 4.33-2.79 1-3.21 3.17a9.15 9.15 0 0 0 .08 3.91l-2.55 1.46a40.18 40.18 0 0 0 -4.42-2.75c-2.25-1.17-3.62-1.71-3.62-1.71s1.51-6.37 3.59-8.29zm-4.96 14.6a26.73 26.73 0 0 1 .84-4.2 21.29 21.29 0 0 1 3.87 1.75 8.89 8.89 0 0 1 2.75 1.87s-2.46 1.67-4.54 3.29-3.51 2.65-3.51 2.65.26-2.75.59-5.36zm.21 22.21a13.79 13.79 0 0 1 0-2.54l2.63 1.92c1.08.79 1.91 1.37 1.91 1.37s-1.83.92-2.75 1.34a12.27 12.27 0 0 1 -1.21.5s-.38-1.8-.58-2.61zm9.84 13c-2.46 1.63-4.8.71-6.38-2.42a22.6 22.6 0 0 1 -2.33-6.41 17.19 17.19 0 0 1 2.75-1.17 18.18 18.18 0 0 0 2.41-1.21 13 13 0 0 0 3.91 2.23l3.17 1.21s-1.08 6.09-3.53 7.71zm4-12.17c-.25 1.42-.46 2.17-.46 2.17l-3-1a7.79 7.79 0 0 1 -2.08-1.33 29.06 29.06 0 0 0 3.12-1.84c1.54-1 2.88-2 2.88-2s-.17 2.53-.42 3.96zm.75-6.54s-7.63 5.63-8 5.46-7.3-5.27-7.39-5.48-.25-8.62 0-8.87 8.46-6 9.71-6.63a74.47 74.47 0 0 1 7.16 4.59c.02.29-1.44 10.87-1.44 10.87zm14.29 4.17c.67 4.75 1.12 6.54-2.21 7s-11-1.87-11-1.87a53.2 53.2 0 0 0 .84-5.5c.12-2.05.25-3.38.25-3.38s2.66-1.92 4.24-3.27 2.5-2.21 2.5-2.21 4.75 4.42 5.42 9.17zm-5-12a42.75 42.75 0 0 0 -3.5-2.75l-2.18-1.52.38-5.12a7.25 7.25 0 0 0 2.5-2.3 7.35 7.35 0 0 0 .7-2.5s9-4.45 11.21-1.66-5.37 12.33-6.87 13.79-2.16 2-2.16 2z" fill="#1d1d1b"/></svg>