<?xml version="1.0" encoding="utf-8"?><!-- Uploaded to: SVG Repo, www.svgrepo.com, Generator: SVG Repo Mixer Tools -->
<svg width="800px" height="800px" viewBox="0 0 64 64" xmlns="http://www.w3.org/2000/svg"><path d="m59.05 38.69c-.71-3.37-3.34-3.15-4-3.06a11.22 11.22 0 0 0 -1.5.34s-17.75-7.25-17.84-7.37a3.34 3.34 0 0 0 -1.71-3.6 3 3 0 0 0 -3.78.75l-6.22-3.75a3.6 3.6 0 0 0 0-3.16 2.91 2.91 0 0 0 -2.87-1.38 4.41 4.41 0 0 0 -.78.22l-1.22-3.93s1.31-2.19.09-3.75-3.44-.79-3.84-.38a6.61 6.61 0 0 0 -.88 1.66l-4.15-.07a2.41 2.41 0 0 0 -2.45-1.77 3.07 3.07 0 0 0 -2.9 3.94c.69 1.91 3.78 2.31 4.72 1.09a3.06 3.06 0 0 0 .85-2s3.71 0 3.68.1a1.85 1.85 0 0 0 1 1.72 3 3 0 0 0 2.13.15l1.78 4.1a2.78 2.78 0 0 0 .06 3.22 3.77 3.77 0 0 0 3.4 1.24l6.56 4.6a1.65 1.65 0 0 0 .25 1.53 2.51 2.51 0 0 0 1.16 1l-.59 8.47s-2.87.69-1.91 3.28a2.62 2.62 0 0 0 3.19 1.91s12.5 8.5 12.53 8.59a2.89 2.89 0 0 0 2.57 2.44 2.67 2.67 0 0 0 3.28-2.1 12.44 12.44 0 0 0 -.28-1.56l6.4-8.81s3.99-.28 3.27-3.66zm-52.05-25.12a1.62 1.62 0 0 1 -.2-2.57 1.67 1.67 0 0 1 2.63 1.35c.12 1.56-1.31 2.03-2.43 1.22zm9.09-.5a1.62 1.62 0 0 1 -.15-2.6 1.66 1.66 0 0 1 2.62 1.35c.09 1.59-1.35 2.06-2.51 1.25zm4.66 8.47a1.62 1.62 0 0 1 -.16-2.6 1.67 1.67 0 0 1 2.63 1.35c.08 1.59-1.35 2.06-2.51 1.25zm10.55 4.81a2 2 0 0 1 3.19 1.5c.13 1.59-2 2.19-3.19 1.37a1.84 1.84 0 0 1 0-2.87zm-1.46 16.16a1.6 1.6 0 0 1 0-2.5 1.76 1.76 0 0 1 2.77 1.3c.11 1.39-1.76 1.9-2.77 1.2zm15.85 11.06a1.59 1.59 0 0 1 0-2.5 1.76 1.76 0 0 1 2.77 1.3c.1 1.39-1.77 1.9-2.77 1.2zm2.68-3.44a2.31 2.31 0 0 0 -1.91-.41 9.35 9.35 0 0 0 -1.37.63l-11.94-7.13s1.5-1.53.56-3a3.38 3.38 0 0 0 -2-1.65s.19-7.63.25-7.63a2.62 2.62 0 0 0 1.84-.19c1.1-.46 1.2-.75 1.2-.75s8.6 4.15 12 5.53 5.91 2.31 5.91 2.31a2.23 2.23 0 0 0 .34 2.06 5.15 5.15 0 0 0 1.41 1.63zm8.7-9.68c-1.27 1-2.94-.51-2.89-1.92a1.84 1.84 0 0 1 2.41-1.53 2 2 0 0 1 .48 3.45z" fill="#1d1d1b"/></svg>