<?xml version="1.0" encoding="utf-8"?><!-- Uploaded to: SVG Repo, www.svgrepo.com, Generator: SVG Repo Mixer Tools -->
<svg width="800px" height="800px" viewBox="0 0 64 64" xmlns="http://www.w3.org/2000/svg"><path d="m47.14 46.69a41.54 41.54 0 0 0 -1.46-17.84c-3-9.5-9.08-10-9.21-10a25.15 25.15 0 0 0 0-3.5c-.25-2.08-3.79-3-4-3s0-.83-.12-2.08-2.58-3.54-4.58-3.25-2.55 1.62-2.42 2a3.57 3.57 0 0 0 2.54 1.08c.79-.08 1.13-.41 1.54-.41s1 1.5 1.17 3 1.62 1.12 2.92 1.62.95 4 .95 4a13.71 13.71 0 0 0 -2.66-.38 6.82 6.82 0 0 0 -2.59.17s-1.45-4.5-2.58-6-4.58-.58-5-.5-3.33-2.75-4.08-3a7.2 7.2 0 0 0 -4 .84c-.88.62-.3 1.16.29 1.54a4.3 4.3 0 0 0 2.58.37c.29-.2.54-1 .75-1.16s2 2 3.21 2.83 4 0 4.71.17 2.37 5.54 2.37 5.54a17.54 17.54 0 0 0 -5.29 2.62c-2.5 1.88-4 4.8-5.42 11s-.25 16.92-.25 16.92a4 4 0 0 0 -2.51 5.58c1.13 2 3.92 1.5 7 .75s6.75 1.25 8.75 1.46 3.54-.91 5.83-1.25 5.38.34 8.46.88 7-1.13 6.92-5a5.43 5.43 0 0 0 -3.82-5zm-3.08 8.41a25.69 25.69 0 0 0 -8.42-.7c-3.75.16-4.42 1-6.54.79s-3.21-2-7.09-1.42-5.5 1.25-6 .63-1.37-2.25 0-3.3c.81-.63 2.88-.62 2.92-.91a50.07 50.07 0 0 1 -.71-13.71c.75-7.38 2.08-11.63 5.75-14.29s8-2.42 11.67-1.84 7.36 4.5 8.79 10.25.42 17.21.58 17.34 3.38.54 3.5 3.37-1.45 4.5-4.45 3.79zm-25-3.16a2.88 2.88 0 0 0 -2.13.75.75.75 0 0 0 .29.91c.21 0 .63-.29 1.38-.66s1.37.16 1.83.16.33-.16.42-.54-1.04-.56-1.79-.62zm10.66 1.12c-.83 0-1.58-.9-1.87-1s-.59.63-.54.88 1.16.67 1.75 1a7.63 7.63 0 0 0 2.87.16c.25-.08.08-.66 0-1s-1.37-.04-2.21-.04zm15.09-.29a10.2 10.2 0 0 0 -2.88-.08c-.12.08-.17.75.25.87s.58 0 1.33 0a17.81 17.81 0 0 1 2.34.42c.16 0 .33-.54.33-.75s-.12-.23-1.37-.46zm-9.5-4.17c-.34 0-.71 0-.71.17s1.66 2.75 1.66 2.75a3.84 3.84 0 0 0 1-.17c.25-.12-1.64-2.79-1.95-2.75zm2.12-.16a27.42 27.42 0 0 0 1.25 2.87c.17.17.71.09.88 0a10 10 0 0 0 -1.3-2.79c-.26-.12-.91-.41-.83-.08zm2.25-.13a25.6 25.6 0 0 0 1.32 2.34.73.73 0 0 0 .75-.17 11.46 11.46 0 0 0 -1.21-2.33c-.11-.09-.99-.24-.86.16zm4.42 1.46a11.79 11.79 0 0 0 -2.1-2.58c-.25-.17-.62.25-.62.25a23.31 23.31 0 0 0 2.12 2.75s.5-.19.6-.42zm.25-2.21c.12 0 0-.41 0-.71a9.94 9.94 0 0 0 -1.58-2c-.21-.21-.61.5-.46.54s1.91 2.17 2.04 2.17zm-20.88-23.41c-.33.12-.75.7-1.41 2.37s-1 2.67-.88 2.79.83.13 1 0a12.58 12.58 0 0 1 .46-2c.37-.83 1.58-2.83 1.62-3s-.45-.31-.79-.16zm16.28 12.2c-.45-4.87-3.47-6.58-6.92-6.54s-5.4.29-6.7 2c-1.13 1.46-2.2 3.67-1.86 5.5s1.73 5.69 7.17 6.17 8.76-2.25 8.31-7.13zm-8.63 5.38a5.55 5.55 0 0 1 -4.79-5.42c0-1.66 1.28-4.62 6.37-4.75a5 5 0 0 1 5.3 4.79c.13 3.8-3.35 5.75-6.88 5.38zm.1-6.83a2 2 0 0 0 -.58 3.45c1.33 1.34 4.37.42 4.12-1.62a2.43 2.43 0 0 0 -3.54-1.83z" fill="#1d1d1b"/></svg>