<?xml version="1.0" encoding="utf-8"?><!-- Uploaded to: SVG Repo, www.svgrepo.com, Generator: SVG Repo Mixer Tools -->
<svg width="800px" height="800px" viewBox="0 0 64 64" xmlns="http://www.w3.org/2000/svg"><path d="m25.13 28.7a33.35 33.35 0 0 1 5.54-4.42s0-.92-.2-1-2.8 1.41-4.84 3.54a56.57 56.57 0 0 0 -4.58 5.18 1.16 1.16 0 0 0 .75.25c.2-.05.96-1.1 3.33-3.55zm6.92-1.7c.21-.13 0-.63-.21-.67s-1.87 1-5.21 4-5.79 6.2-5.91 6.67a1.56 1.56 0 0 0 1 .17c.41-.17 1.62-1.8 3.29-4.13s6.83-5.89 7.04-6.04zm2.17 2.21c-.3 0-1.38.66-4 3s-5.45 4.53-5.55 4.79c0 .12.71.58 1 .58s1.2-1.37 2.7-2.83 5.8-4.5 6-4.75.14-.8-.15-.76zm7.45-4.5a39.49 39.49 0 0 0 -4.16 2.5s.37.54.66.62 3.67-2.37 3.88-2.58-.05-.51-.38-.51zm-.87-9c-.33 0-7 4.64-6.88 4.91s.3.59.46.54 6.75-4.58 6.88-4.75-.13-.71-.46-.71zm16.87 6.7c-2.37-1.25-9.5-.75-9.5-.75s1-.58 3.55-1.95 7-2.88 7.37-3.75-1.5-1-5 0-8.83 2.8-8.83 2.8a65.15 65.15 0 0 1 6.5-3.76c2.58-1.21 6.66-1.8 7-2.25s0-1.34-2.55-1.34-9.45 1-9.45 1a6.66 6.66 0 0 1 1.45-.87c.8-.34 5-3.34 5.34-3.63s.21-.83-.67-1.12-3.21.46-7.79 2.62-13.62 8.04-20.42 14.59-11.62 12.49-12.25 13.86a3.49 3.49 0 0 0 .17 3 1.49 1.49 0 0 0 1.71 1.14c1.21 0 3-1 3.67-1s.45 1 1.54 1.33 2.41-.12 2.87.05 0 .7-.21 1.12.67.92 1.3.83 5-3.75 13.45-9.7 21.84-10.39 21.84-10.39 1.29-.59-1.09-1.84zm-1.91 1.25c-.13.21-12.63 5.21-19.79 9.8s-11.8 8.87-12 8.66-.25-.83-1-1-2.63.17-2.75-.16-.21-1.46-1.13-1.5-2.58 1.12-3.62 1.12-1.8-.62-1.63-1.5a63.3 63.3 0 0 1 10.71-12.84 119.61 119.61 0 0 1 15.45-12.24c3.58-2.25 8.83-4.79 9.58-5.17s1.42-.38 1.22-.26-5.88 3.38-6.42 4-.38 1.43.62 1.33 5.87-.7 6.45-.75 1.55-.2 1.25 0-8.37 3.8-10.79 6-2.75 3.13-1.71 3.25 3.8-1.62 6.88-2.83 7.09-2.57 7.05-2.37-7.62 3.79-8.5 4.62a.93.93 0 0 0 .71 1.63 70.34 70.34 0 0 1 7.08-.34c2 .13 2.46.34 2.34.54zm-35.17 20.74c-.46-.58-5.67.88-6 .92s-6.05-3.42-6.42-3.12.38 5.08.34 5.29a23.4 23.4 0 0 1 -3.34 1.12c-.58.21-.25.67-.16 1.29s4.08 2.17 4.25 2.42.54 4.21.54 4.21 1.25.83 1.58.79 3.79-3.58 4.09-3.83 4.7.62 5.37.33-1.83-3.75-2-4.21 2.21-4.61 1.75-5.21zm-2.75 7.6c-.25.08-3.25-.79-3.71-.42s-2.54 3.17-2.66 2.75-.25-3-.38-3.12-3-1.67-2.83-2 2.74-.81 2.74-1.1-.88-2.79-.71-3.12 2.87 2.41 3.58 2.37 3.59-1.29 3.79-1-1 2.5-1 2.88 1.43 2.76 1.18 2.76z" fill="#1d1d1b"/></svg>