<?xml version="1.0" encoding="utf-8"?>
<svg width="800px" height="800px" viewBox="0 0 64 64" xmlns="http://www.w3.org/2000/svg"><path d="m32.81 7.54a2.9 2.9 0 0 0 -.5 3.92c1 1.75 4.79 1.54 4.59-1.5s-2.9-3.56-4.09-2.42zm2.93 2.33a1.37 1.37 0 0 1 -2.51.82 1.59 1.59 0 0 1 .28-2.14c.64-.62 2.11-.34 2.23 1.32zm-29.68 15.63c.21 0 1 .29 1.46-.09s.17-.37.25-1.54a26.66 26.66 0 0 1 1.83-6.62c1-2.13 4.92-6.79 10.38-9.34s11.92-2.62 17.83-1.16 12.09 6.62 15.19 11.66.46 14.92-1.29 18.88-9.71 8.58-15.71 8.83a16.45 16.45 0 0 1 -13.08-6c-2-2.71-3.84-9.46-1.34-14a9.93 9.93 0 0 1 8.63-5c1.75-.13 3.16 1.54 3.54 1.67a1.17 1.17 0 0 0 1.12-1.42c-.2-.92-3.62-3.58-10.7-.21s-6.17 10.25-5.77 13.3 2.08 11.2 12.5 13.12a21.83 21.83 0 0 0 20-6.46c2.25-2.58 5.59-7 5.46-15.62s-2.84-11.25-9.76-16.75-18-5.88-24-3.79-13.6 7.37-15.41 12.37-1.34 8.17-1.13 8.17zm2.88 8.62c-.42-1.79-1.94-2.61-3.34-1.91s-1.2 2.33-.33 3.79 4.08-.09 3.67-1.88zm-2.94 1.03c-.44-.74-.57-1.57.17-1.94a1.21 1.21 0 0 1 1.71 1c.21.9-1.43 1.69-1.88.94zm30.85-3.9c.8-5.71-4.58-5.9-6.79-5.38-5.41 1.29-4.79 6.59-2.71 8.63s8.71 2.5 9.5-3.25zm-6.29 2.54a3 3 0 0 1 -2.41-2.71 3.08 3.08 0 0 1 2.25-3.67c.93-.36 3.37-.12 4.2 1s.38 3.29.38 3.29-.5-.87-.63-.87-.66.17-.62.33a7.45 7.45 0 0 1 .54 1.59c-.08.2-.62.83-.75.66s-1.08-2.79-1.33-2.83-.79 0-.75.21 1.41 2.87 1.21 3.08-.75.38-.88.08-1-2.66-1.12-2.7-.92.2-.84.5.92 2 .75 2.04zm5.84 16.37c-1.42.84-1.88 2.5-1.13 4.55s5.17 2.41 5.79-.75a3.36 3.36 0 0 0 -4.66-3.8zm3.6 3.47c-.4 2-3.23 1.79-3.71.48s-.19-2.37.72-2.91a2.15 2.15 0 0 1 2.99 2.43zm-15.44-18.13c-1.46.71-1.21 2.33-.33 3.79s4.08-.08 3.67-1.88-1.9-2.61-3.34-1.91zm.4 2.94c-.44-.74-.57-1.57.17-1.93a1.2 1.2 0 0 1 1.71 1c.21.89-1.43 1.68-1.84.93zm24.6-18c0-1.88-2-3.16-3.16-2.3a2.25 2.25 0 0 0 -.55 3.25c.88 1.23 3.75.94 3.71-.93zm-2.62-1.37c.57-.43 1.55.21 1.57 1.14s-1.41 1.08-1.84.48a1.11 1.11 0 0 1 .27-1.6zm-31.62 9.24a1.71 1.71 0 0 0 -.41 2.48c.66.92 2.85.69 2.82-.73s-1.54-2.4-2.41-1.75zm1.61 1.58c0 .71-1.07.82-1.41.36a.85.85 0 0 1 .21-1.25c.44-.31 1.18.18 1.2.89zm39.47 7.65c-1.25.54-1.55 2.54-.92 3.87s3.92 1 4-1.45-1.96-2.91-3.08-2.42zm-.1 3.14a1.65 1.65 0 0 1 .5-2.14 1.22 1.22 0 0 1 1.68 1.33c-.02 1.36-1.84 1.54-2.18.81zm2-30.35c-.21-3-2.9-3.55-4.08-2.42a2.9 2.9 0 0 0 -.5 3.92c.97 1.75 4.76 1.54 4.55-1.5zm-3.39-1.4c.65-.62 2.12-.35 2.23 1.32a1.36 1.36 0 0 1 -2.5.82 1.58 1.58 0 0 1 .24-2.14zm-45.56 41.53c-1.41.83-1.87 2.54-1.12 4.54s5.17 2.41 5.79-.75a3.36 3.36 0 0 0 -4.67-3.79zm3.58 3.46c-.4 2-3.23 1.79-3.71.48a2.23 2.23 0 0 1 .72-2.91 2.16 2.16 0 0 1 2.99 2.43zm43.26-6.63c-.38 0-.67.71-1 1.21s-3.75 5.41-7.63 7.58-11 2.88-17.79 1.17-13.38-9.54-16-17.42.67-12.75 2.33-15.83 5.59-7.21 10.13-7.63 11.77-.75 15.08 4.25a12.94 12.94 0 0 1 .69 14.17c-2.37 4.54-8.51 3.76-8.75 4s-.21 1.67.25 1.79a15.9 15.9 0 0 0 7.21-1.71c2.58-1.5 5.75-5.41 4.62-13.54s-8-10.87-14.25-11-12.41 1.58-16.62 8.25a20.61 20.61 0 0 0 -2.56 17.67c1.45 5.25 5.2 13.54 13.33 17.62s17 2 22.71 0 9.71-9.46 9.66-9.71-1.04-.87-1.41-.87z" fill="#1d1d1b"/></svg>