<?xml version="1.0" encoding="utf-8"?><!-- Uploaded to: SVG Repo, www.svgrepo.com, Generator: SVG Repo Mixer Tools -->
<svg width="800px" height="800px" viewBox="0 0 64 64" xmlns="http://www.w3.org/2000/svg"><path d="m50.09 23.24c-4 1-4 6.29-2 8.37s7.21 1.29 7.58-3.37-3.67-5.45-5.58-5zm4.77 4.94a3.73 3.73 0 0 1 -6.13 2.72c-1.62-1.68-1.69-6 1.58-6.77a3.63 3.63 0 0 1 4.55 4.05zm-4.24-2.83c-2.22.53-2.17 3.45-1.07 4.59a2.53 2.53 0 0 0 4.15-1.85 2.46 2.46 0 0 0 -3.08-2.74zm-.49 3.9c-.72-.75-.75-2.68.71-3a1.62 1.62 0 0 1 2 1.81 1.67 1.67 0 0 1 -2.71 1.19zm.94-2.11c-.67.16-.66 1-.33 1.39a.77.77 0 0 0 1.26-.53.74.74 0 0 0 -.93-.86zm-36.07-11.57c.21 0 0-.42 0-.79s-2.21.12-2.46.12c0 0-.08.8.09.92a12 12 0 0 0 2.37-.25zm-2.29 1.21s-.08.79.08.92a12.75 12.75 0 0 0 2.42-.25c.21-.05 0-.42 0-.8s-2.29.13-2.54.13zm-.92 2.83a20 20 0 0 0 -.45-4.61c-.21-.34-3.75.16-4 .29a36.52 36.52 0 0 0 .75 4.79 13.36 13.36 0 0 0 3.66-.47zm-1.33-3.54c.08.13.29 2.63.29 2.63s-1.87.45-1.91.29-.34-2.75-.34-2.75a8.52 8.52 0 0 1 1.92-.17zm5.08 4.46c-.08-.21-7.08.8-7.25.83s-.08.84 0 1 7.09-.92 7.3-1 0-.62-.09-.83zm.3 1.79c-.09-.21-7.09.8-7.25.83s-.09.84 0 1 7.08-.91 7.29-1 0-.62-.08-.83zm.29 2c-.09-.21-7.08.8-7.25.84s-.09.83 0 .95 7.08-.91 7.29-1 0-.54-.08-.75zm-5.83 6.5a1.73 1.73 0 0 0 2.45-2 1.78 1.78 0 0 0 -2.7-.91 1.65 1.65 0 0 0 .25 2.91zm.26-2.19a.89.89 0 0 1 1.35.46.87.87 0 0 1 -1.23 1 .83.83 0 0 1 -.12-1.46zm3.57-1.1a1.66 1.66 0 0 0 .25 2.87 1.74 1.74 0 0 0 2.46-1.95 1.78 1.78 0 0 0 -2.71-.92zm1.87 1.14a.87.87 0 0 1 -1.23 1 .83.83 0 0 1 -.13-1.44.9.9 0 0 1 1.36.44zm10.71-10.67a1.22 1.22 0 0 0 -1.71-1.35c-.91.55-1 1.21-.5 1.88a1.33 1.33 0 0 0 2.21-.53zm1.88-3.25c.58-.13.83-.88.29-1.5s-1.62-.1-1.71.12c-.37.99.83 1.53 1.42 1.41zm7.58 3.08a2.38 2.38 0 0 0 1.46 1 9.62 9.62 0 0 0 1.37 1c.34.13 1.59.71 2.38-.12s-.38-2.43-.38-2.43a3.26 3.26 0 0 0 0-2.38c-.5-1.45-2.42-1.37-2.42-1.37-1.87-1.63-3.25-.88-3.54 0s.75 2.67.75 2.67a2.73 2.73 0 0 0 .38 1.66zm4.67 1.34c-.34.37-1.38-.38-1.38-.38a1.18 1.18 0 0 0 .54-.25 5.2 5.2 0 0 0 .5-.5s.67.78.34 1.16zm-2.13-4.59a1.8 1.8 0 0 1 1.67 1.92 1.68 1.68 0 0 1 -2.83 1c-1.17-1.14-.67-3.14 1.16-2.89zm-2.71-1.05c.5-.5 1.3.37 1.3.37a2 2 0 0 0 -.67.5 3.22 3.22 0 0 1 -.38.46s-.75-.86-.25-1.33zm2 8.67c-.45.37-.54 1.91.59 2.08a1.26 1.26 0 0 0 1.54-1.58c-.21-.96-1.61-.93-2.13-.5zm.78 1.41c-.48-.07-.45-.73-.25-.9s.83-.19.91.22a.54.54 0 0 1 -.66.68zm16.56-5.87c-.21.12-.42.08-1 0a1.05 1.05 0 0 0 -.92.37 8.57 8.57 0 0 0 -.46-1.62c-.25-.5-.58-.33-1.42-.17a6 6 0 0 1 -2.12-.16s-.12-2.09-.12-2.16-.73-.14-.84 0a65.79 65.79 0 0 0 -.33 7.58c.17.21 7.79 1.08 7.79 1.08a4.11 4.11 0 0 0 .17-.91c0-.17-2.38-.38-4-.71a10.32 10.32 0 0 0 -2.71-.25 5.28 5.28 0 0 1 .88-.63 2.09 2.09 0 0 0 .79-1.16c.12-.34.62-.25 1-.17s0 0 .37.25.46.62.63.87a2.36 2.36 0 0 0 .62.71 3.5 3.5 0 0 0 1.42.46c.16-.08.12-.29-.25-.67s-.88-.5-.88-.7-.08-.67.09-.88 1.12-.21 1.37-.21a4.36 4.36 0 0 0 1.33-.46c.17-.12-.08-.87-.08-.87a12 12 0 0 0 -1.33.41zm-4.46.26a2 2 0 0 0 -.88 1c-.16.33-.25.58-.54.71s.08-2.34.08-2.34a6.55 6.55 0 0 0 1.42 0c.67-.08 1.13-.37 1.33-.16a1.72 1.72 0 0 1 .3.75 3.21 3.21 0 0 0 -1.71.04zm-38.75 17.78a10.3 10.3 0 0 0 -2.83.22 9.93 9.93 0 0 0 .62 3.5 12.34 12.34 0 0 0 2.79-.38 14.45 14.45 0 0 0 -.58-3.34zm-.13 2.7a7.32 7.32 0 0 1 -1.55.21 5.83 5.83 0 0 1 -.35-1.94 5.93 5.93 0 0 1 1.57-.14 8 8 0 0 1 .33 1.87zm4-3.16a10.33 10.33 0 0 0 -2.83.25 10.12 10.12 0 0 0 .62 3.5 12.5 12.5 0 0 0 2.8-.37 14.47 14.47 0 0 0 -.59-3.38zm-.22 2.68a6.66 6.66 0 0 1 -1.55.21 5.54 5.54 0 0 1 -.34-1.94 5.89 5.89 0 0 1 1.57-.14 8 8 0 0 1 .32 1.87zm2.36-.13a1.43 1.43 0 0 0 2-1.61 1.46 1.46 0 0 0 -2.22-.76 1.37 1.37 0 0 0 .22 2.39zm.22-1.8a.72.72 0 0 1 1.11.37.71.71 0 0 1 -1 .81.68.68 0 0 1 -.11-1.16zm3.28 1.59a1.43 1.43 0 0 0 2-1.61 1.46 1.46 0 0 0 -2.22-.76 1.37 1.37 0 0 0 .22 2.39zm.22-1.8a.73.73 0 0 1 1.11.37.71.71 0 0 1 -1 .81.68.68 0 0 1 -.11-1.16zm-11.13 4.7a1.37 1.37 0 0 0 .2 2.37 1.43 1.43 0 0 0 2-1.61 1.46 1.46 0 0 0 -2.2-.76zm.52 1.75a.68.68 0 0 1 -.1-1.18.73.73 0 0 1 1.11.37.71.71 0 0 1 -1.01.81zm3.27-2.16a1.37 1.37 0 0 0 .2 2.36 1.43 1.43 0 0 0 2-1.61 1.47 1.47 0 0 0 -2.2-.75zm.48 1.74a.69.69 0 0 1 -.1-1.18.73.73 0 0 1 1.11.38.71.71 0 0 1 -1.01.8zm27.1-7.37a1.37 1.37 0 0 0 .21 2.37 1.43 1.43 0 0 0 2-1.61 1.47 1.47 0 0 0 -2.17-.76zm.53 1.75a.68.68 0 0 1 -.1-1.18.73.73 0 0 1 1.11.37.72.72 0 0 1 -.97.81zm3.22-1a1.37 1.37 0 0 0 .21 2.37 1.43 1.43 0 0 0 2-1.61 1.47 1.47 0 0 0 -2.17-.76zm.57 1.73a.68.68 0 0 1 -.1-1.18.73.73 0 0 1 1.11.37.72.72 0 0 1 -1.01.81zm3.35-.68a.68.68 0 0 0 .11 1.18.72.72 0 0 0 1-.81.73.73 0 0 0 -1.11-.35zm2.92.66a.69.69 0 0 0 .1 1.18.71.71 0 0 0 1-.8.73.73 0 0 0 -1.1-.36zm7.73-22.6c-.08-3.54-5.75-3.2-9.37-3.16a23.18 23.18 0 0 0 -5 .41 5.39 5.39 0 0 0 -.59-1.75c-.37-.5-3.54-1.08-7.62-1.08s-14.75-.5-17.42 0a5.23 5.23 0 0 0 -3.71 2.75 34.62 34.62 0 0 0 -5.75.12 42.42 42.42 0 0 0 -6.37 1.17c-1.13.46-1.13 2-.88 2.63s3.59 17.77 3.59 17.77a8 8 0 0 0 -1.75.83c-.25.29 2.5 11.46 2.7 11.88s5.42-.3 5.42-.3 1.92 8.84 2.08 9.13 1.25.54 7.59.58 24.75.13 25.25-.08 2.46-8.88 2.46-8.88 3.37.3 3.87.25 1.42-1.83 2-4.16.17-7.13.17-7.13 3.41-17.36 3.33-20.96zm-42.21-1.89c.09-.25.46-1.84 3.09-2.17s8.33-.12 13.62.08 9.21.75 9.38 1.25.25 9 .16 12.25-.71 7.67-1 7.67h-3.66a7.5 7.5 0 0 0 -3.42-1.57c-2.13-.42-3.25-.59-3.25-.59s.79-5.12-2.75-7.58a7.69 7.69 0 0 0 -8.08-.54 12.85 12.85 0 0 0 -3.17 2.5s-1-11.05-.92-11.3zm7.21 14c-.5 0-1.87.21-2 1.46s0 1.91.83 2.41a4.18 4.18 0 0 0 1.92.5l-.62 1.14s-5.75.29-5.84.16-.41-6.79-.41-6.79c.16-.12 1.87-2.58 4-3.37a7.34 7.34 0 0 1 3.91-.38 2.26 2.26 0 0 0 -1.21 2.03c.17 1.38 1.75 1.63 2.59 1.38s.87-1 .58-1.17-.92.38-1.29.38-1.13-1-.59-1.54a1.76 1.76 0 0 1 1.55-.5 5.05 5.05 0 0 1 2.91 3.58c.54 2.54.17 3.33.17 3.33s-2.83-.11-3.17-.11a9.07 9.07 0 0 0 -1 .37s-.33-.87-.45-.79-.55 1.38-1.71 1.13-1.84-2.09-.71-2.34l1.12-.22s-.08-.66-.58-.66zm-19.79-12.63a26.94 26.94 0 0 1 5.42-.86c2.54-.21 5-.25 5.08 0s1.71 18.82 1.58 19a53.83 53.83 0 0 1 -8.29 1c-.25-.14-4.12-17.76-3.79-19.14zm4.17 30.25c-.13-.12-2.34-8.62-2.13-9s4.58-.66 7.67-1.12a94.73 94.73 0 0 1 9.71-.46s-1.05 4.83-1.25 5-5.8 1.47-6.05 1.58.71 3.21.5 3.25-8.33.88-8.45.75zm18.75 9.89c-.13 0-2.25.08-2.25.08a19.68 19.68 0 0 0 -1.59-3.29c-.29-.08-.79.13-.71.25s1.13 2.96 1.13 2.96h-1.25s-1.75-3.67-2-3.71-1 .08-.84.25 2 3.37 1.71 3.41-1.33.09-1.33.09-1.58-3-1.75-3-.71.25-.67.37a20 20 0 0 1 1.05 2.59 23.63 23.63 0 0 1 -3.05-.18c-.12-.12-1.62-8-1.5-8s3.34-.5 3.34-.5a10.12 10.12 0 0 0 2.62 2.54 37.06 37.06 0 0 0 6.38 3.14l.58.2a22.79 22.79 0 0 1 .13 2.8zm4.2-4.42c-.12.13-.91.5-.83 1a34.16 34.16 0 0 1 .63 3.67 24.55 24.55 0 0 1 -2.46 0 37.62 37.62 0 0 0 .5-3.88c-.13-.12-5.13-1.21-8-3.92s-3-4.79-2.75-4.91 5.83-1.59 5.91-1.84 1.21-5.87 1.46-6.5a6.22 6.22 0 0 1 1.54-2.2c.94-.65 4.46.12 5.55.16a7.26 7.26 0 0 1 3.08 1c.17.25 1.08 7.17 1.29 7.34s5.38 1.66 5.58 2.21-1.33 3.08-2.2 3.91a10.85 10.85 0 0 1 -1.46 1.21 21.54 21.54 0 0 0 -2-3c-.25 0-1 .17-.8.54s2.13 2.75 2 2.92a6.65 6.65 0 0 1 -1.25.58 37 37 0 0 0 -2.37-3c-.17 0-.88.21-.79.37a28.18 28.18 0 0 1 2 3.17 2.12 2.12 0 0 1 -.75.33s-2.63-3.46-2.79-3.42-.71.33-.59.5a24.85 24.85 0 0 1 2.34 3.08 12.09 12.09 0 0 1 -1.79.38 25.46 25.46 0 0 0 -2.42-3c-.25 0-.71.42-.63.58a25.94 25.94 0 0 1 2 2.75zm16.25-1.34s-.54-1.34-.7-1.29-.84.37-.67.54a11.67 11.67 0 0 1 1.08 2.51c0 .21-.41 1.54-.41 1.54s-1.55-2.67-1.67-2.67-.83.25-.71.46 2 3.38 2 3.63-.17 1.5-.17 1.5l-.41-.09s-2.46-4.37-2.63-4.37a3.14 3.14 0 0 0 -.75.41l2.34 4.09h-1.25a36.42 36.42 0 0 0 -2.05-3.43c-.16 0-.75.25-.75.42s1.79 2.91 1.63 3a11.83 11.83 0 0 1 -1.29-.05s-1.13-2.29-1.38-2.29-.92.13-.83.29l1 2h-1s-.63-1.54-.88-1.58-.91.13-.83.25.54 1.38.37 1.38a34.11 34.11 0 0 1 -4.2-.09 14.62 14.62 0 0 1 -.38-3 18.57 18.57 0 0 0 5.5-1.92 16.87 16.87 0 0 0 4.67-4 37.65 37.65 0 0 1 4.79.46c0 .13-.42 2.3-.42 2.3zm2.21-6.71c-.08.17-.41 2.54-.54 2.54a1.86 1.86 0 0 1 -.42-.12l.25-2.63a11.16 11.16 0 0 1 -2-.37 9 9 0 0 1 .33-1 31.37 31.37 0 0 1 4.46 1c0 .12-.13.91-.25.87s-1.74-.46-1.83-.29zm4.17-1.53a19.73 19.73 0 0 1 -1.46 4.71 7.39 7.39 0 0 1 -2.54-.5c-.17-.13.29-1.5.46-1.59a16.61 16.61 0 0 1 1.71.34c.25 0 .66-2.38.66-2.63s-5.71-1.33-6-1.33-.5 2.75-.5 2.75l1.79.66-.08 1.67-3.71-.37a5 5 0 0 0 .42-1c.12-.46.42-2.25-.5-2.88a39.26 39.26 0 0 0 -5.13-2l-.79-4.66a29.89 29.89 0 0 1 5.84.46 74.78 74.78 0 0 1 10 2.75 8.12 8.12 0 0 1 -.17 3.62zm1.46-11a16.59 16.59 0 0 1 -1.34 5.54 48.11 48.11 0 0 0 -6.25-1.79 22.36 22.36 0 0 1 -3.79-1s.84-6.67 1-10.54.13-8.25.13-8.25h7s4.87.29 5 1.21-1.34 11.03-1.75 14.83zm-27.84 3.57a18 18 0 0 0 -.58 3.13c0 .29.58.29.79.2a14.84 14.84 0 0 0 .71-3.2c0-.25-.8-.25-.92-.13zm12.17 11.17c.13-.29-.32-.93-.46-.88a3 3 0 0 0 -.62.59l.71.7a.84.84 0 0 0 .37-.41z" fill="#1d1d1b"/></svg>