<?xml version="1.0" encoding="utf-8"?><!-- Uploaded to: SVG Repo, www.svgrepo.com, Generator: SVG Repo Mixer Tools -->
<svg width="800px" height="800px" viewBox="0 0 64 64" xmlns="http://www.w3.org/2000/svg"><path d="m30.24 50.5c.09-.38 0-.46-.12-1a4.76 4.76 0 0 1 -1.42 2.08c-1.08.92-2.74.37-3.08.54s-.42.63.08.75a9.52 9.52 0 0 0 2 0 17.35 17.35 0 0 0 1.25 2c.25.21.5.05.67.05a13.48 13.48 0 0 0 -1-2.21.92.92 0 0 1 .45-.21 18.52 18.52 0 0 1 1.46 2.5c.25.33.25 0 .5-.13s-1.41-2.92-1.41-2.92a10.12 10.12 0 0 0 .62-1.45zm.09 1.29a20.6 20.6 0 0 0 1.67 2.29c.17 0 .13-.08.25-.37s-1.46-2.55-1.46-2.55zm.66-1.5s1.34 2.08 1.5 2.21.25-.17.29-.54-1.45-2.3-1.45-2.3zm1.29-2c-.16 0-.41.75-.41.75l1.33 1.37a2.28 2.28 0 0 0 .25-.5c.08-.29-1-1.66-1.17-1.66zm10.21-2.79s.63 1.91.71 2.12.67 0 .88 0-.92-2.17-1-2.38-.42.09-.59.22zm1.51-.21s.38 1.42.46 1.62a.57.57 0 0 0 .71.17c.16-.12-.46-1.58-.54-1.87s-.63.08-.63.08zm7.33 4.5c-.12 0-.37.42-.5.54s2 2.17 2.17 2.17.17-.13.21-.46-1.8-2.21-1.93-2.25zm-20.33-37.46c.21 0 .71-1.83.79-2.33a.34.34 0 0 0 -.58-.34 15.79 15.79 0 0 0 -.71 2.46c-.01.13.24.17.5.21zm3.7 19.33s-.21 3.17-.17 3.38.8.5.92.29a17.53 17.53 0 0 0 0-4c-.21-.25-.45.08-.75.33zm18.46 14.92c-2.46-2-6.63-1.46-6.63-1.46a2.57 2.57 0 0 0 -1.66-2.46 7.78 7.78 0 0 0 -2.5-.75s-.25-3.37-3.09-3.5a9.36 9.36 0 0 0 -5.28 1.71s.13-1.71-.29-1.91a2.4 2.4 0 0 0 -1.21-.05s-.87.09-.87 0 .25-1.37 0-1.58a5.75 5.75 0 0 0 -1.71-.25l-.22 4.17a8.45 8.45 0 0 0 -6.08-2.5 6 6 0 0 0 -5.13 3.54 15.25 15.25 0 0 0 -.33 1.67 7.22 7.22 0 0 0 -3.21.5 5.16 5.16 0 0 0 -2.54 2.62 6.77 6.77 0 0 0 -.17 1.67s-2.29 1-3 2.62a4.06 4.06 0 0 0 1.59 5.33c2.29 1.25 3.16 1.42 4 1.42a28.61 28.61 0 0 0 3.29-.5 6.5 6.5 0 0 0 3.25.63c1.87-.13 3.42-1.55 5-1.5s2.83.95 4.54.95a15.75 15.75 0 0 0 4.25-.95 4.34 4.34 0 0 0 3.29 1.21 6.66 6.66 0 0 0 3-.92c.12 0 2.29 1.17 3.71.83a4.78 4.78 0 0 0 2-.91s6.17.7 7.21-1.92 1.25-5.67-1.21-7.71zm-32.71-6.12c.75-.92 2.58-1.34 4.71-1.25a7.44 7.44 0 0 1 4.08 1.95s-.16 2.05-.21 2.25-.75-1.83-1-2.12a.33.33 0 0 0 -.5 0s1.16 3.41 1.16 3.83-.66-.29-.83-.37-1-3.17-1.08-3.34-.84 0-1 .09a21.94 21.94 0 0 0 1.22 3.16c.08.17-1 .05-1 .05a28.74 28.74 0 0 0 -1-2.71.49.49 0 0 0 -.58.08 12.8 12.8 0 0 0 .88 2.71c.08.12-.63.33-.63.33a18.36 18.36 0 0 0 -1.08-2.41c-.21-.17-.54.08-.63.25s.92 2.41.88 2.54-.25.21-.38.29-1-2.33-1.21-2.33a.46.46 0 0 0 -.5.29c-.16.29 1.13 2.54 1.13 2.54l-.46.46s-.58-.75-1.62-2.17-1.71-1.46-1.71-1.46a10.29 10.29 0 0 1 1.36-2.66zm-2.75 10.54c-2.29 2-.5 4.83-.5 4.83a14.34 14.34 0 0 1 -4.58-.12 3.49 3.49 0 0 1 -2.38-4.25 4.93 4.93 0 0 1 4.54-3.13 4 4 0 0 1 2.67 1.09l.88-.34s-.3-1-2.09-1.62a5.1 5.1 0 0 0 -3.12-.17 3 3 0 0 1 1-1.79 6.65 6.65 0 0 1 4.58-1.21c1.67.33 3.33 3 3.33 3-.66.58 0 2 0 2a5.79 5.79 0 0 0 -4.33 1.71zm25.92 3.75c-.5.21-1.63-.5-2-.38s-.79 1.05-1 1.17a3.79 3.79 0 0 1 -2.58.5c-1.17-.21-4.04-1.04-3.63-3.04s1.25-2.13 1.62-2 .71.29.71.08 0-.63-.16-.71a3.29 3.29 0 0 0 -1.71 0c-.5.21-2.09 2.17-1.59 3.42a3.72 3.72 0 0 0 1 1.58 7.27 7.27 0 0 1 -3.5.67c-2-.13-3.91-1.17-4.87-1s-3.09 1.2-3.84 1.16-3.16-.16-3.33-2a3 3 0 0 1 2.67-3.33 3.44 3.44 0 0 1 2.21.58c0 .13-.09.42.45.25s1-.54.92-.79-2.5-1.46-1.29-3.21 3.5-1.54 4-1 1 1.12 1.5.87 1.5-1.5 1.91-3.91.59-3.54.59-3.54.75.2.75.33 0 5.46.91 6.21 1.3.33 1.55.12a5.36 5.36 0 0 1 2.33-.71c1 0 .92 3.13 1.42 3.21s3.37-.25 5 1.34a3.23 3.23 0 0 1 -.04 4.17zm10.16-1.92a6 6 0 0 1 -.62 1.5 31 31 0 0 0 -3.16-3.12c-.25 0-.62.41-.45.58s3 3 2.75 3-.5.21-.63.17-2.67-2.96-2.8-2.84-.67.34-.46.5 2.37 2.59 2.37 2.59l-1.12-.09a30 30 0 0 0 -2-2.25c-.17 0-.79.17-.63.34s1.84 2 1.46 2.16-1.41-.33-1.71-.29-.54.42-.75.54a1.64 1.64 0 0 1 -1.54.25s2.63-2.37 1.5-4.71a7.41 7.41 0 0 0 -3.16-3.29s-1.17-2-1.5-2.12-.71 0-.59.08a10.84 10.84 0 0 1 1.13 1.88 5.83 5.83 0 0 0 -1.13-.38h-.58s-1-2.17-1.83-2.46l-1-.37s-1.33-2.84-1.46-2.88-.63.17-.54.34l1.25 2.45-.58-.08s-1-2-1.21-2-.54.42-.41.54a6 6 0 0 1 .75 1.63c-.13 0-.88.71-.92.42s-.71-2.71 0-3.84a8.91 8.91 0 0 1 4-1.66 3.36 3.36 0 0 1 3.12 1.33c.21.42.38 1.12.25 1.21s-.79 0-1.16.12a.71.71 0 0 0 -.46.34s-.54-1.71-.79-1.75a.7.7 0 0 0 -.5.16 13.54 13.54 0 0 1 .79 2c-.08.13-.38.92-.46.71s-1.21-2.54-1.5-2.5-.71.21-.62.42a20.56 20.56 0 0 0 2.41 3.37c.34.09.5-.5.5-.5a2.18 2.18 0 0 1 1.62-1.33c1.42-.38 3.21-.05 3.83 1.33s.21 2.58.42 2.75.71.37.79.25a11.75 11.75 0 0 0 .25-1.38s3.88-.45 5.67 1.38a6.24 6.24 0 0 1 1.41 5.54zm-28.16-38.62a12.56 12.56 0 0 0 .16-2.3 9.82 9.82 0 0 1 1.22-3.25c.17-.33-.25-.29-.46-.25a5.34 5.34 0 0 0 -1.29 2.42c-.55 1.54-.75 3.17-.55 3.17s.79.33.92.21zm2 19.66a13 13 0 0 0 .21 3.13c.12.29.7-.05.91-.17a10.28 10.28 0 0 0 0-3c-.08-.5-.74-.08-1.08.04zm-1.83-5.16c.12 0 .79-.59 1-.88s.08-.87.08-1.33.79-.5.79-.5l.67 1.5 1.08.12.13 1.17a7.34 7.34 0 0 0 -.38 1.37 2.33 2.33 0 0 0 .84 2.21c.42.5.79 2.09 1.13 2.17s1.62-1 2.29-2.17.21-3 .33-3 0-1.33 0-1.33a4.14 4.14 0 0 0 .88-.42c.45-.29 1.12-1 1.25-1a8.69 8.69 0 0 1 1 1.83c.08.29.25.21.62.17s2.13-5.54 2.09-6.25-2.17-2.17-2.17-2.17a33.82 33.82 0 0 0 0-4.79c-.21-2.62-1.75-8.58-4.75-8.79s-4.59 2.67-5.67 6.17a20.68 20.68 0 0 0 -.62 7.42 24.77 24.77 0 0 0 -2.88 2c-.21.29-.16.66.38 2.12a34.7 34.7 0 0 0 1.95 4.38zm10.7-4.59a24.47 24.47 0 0 0 .8-2.75l1.2 1.13a5.58 5.58 0 0 1 -.33 1c-.29.75-1.12 2.83-1.25 3s-.87-1.17-.87-1.17.08-.12.49-1.21zm-3.79 6.42a4.72 4.72 0 0 1 -1.33 2.29 5.45 5.45 0 0 0 -.67-1.46 1.44 1.44 0 0 1 -.08-1.87c.52-.45 2.46-.38 2.12 1.04zm0-1.58c-.12-.05-2.29-.17-2.29-.17v-.92a16.81 16.81 0 0 1 2.46 0c0 .13-.04 1.13-.17 1.13zm-4.58-11.88c.12-4.62 2-8.58 3.37-8.92 1.07-.25 3.38.8 3.92 4.88s.21 8-.5 9.92-1.63 3.29-1.91 3.29a17.73 17.73 0 0 1 -3-.13 19.6 19.6 0 0 1 -1.88-9.04zm-1.71 4.75a21.38 21.38 0 0 1 .67 3c-.08.17-1.17 1.42-1.34 1.17a19.14 19.14 0 0 1 -1-3.17c.1-.22 1.59-1.21 1.67-1zm4.08-3.5c1.84 1.5 3.71-1 3.54-2.75a2.29 2.29 0 0 0 -3-2c-2.33.92-2.37 3.25-.54 4.75zm.78-3.64a1.27 1.27 0 0 1 1.73 1.12c.09 1-.94 2.34-2 1.51a1.45 1.45 0 0 1 .27-2.63zm-.8 4.91c-.12-.58-.56-.67-.83-.44a.59.59 0 0 0 0 .86c.17.21.96.17.83-.42zm2 .31c-.12-.58-.56-.66-.83-.43a.58.58 0 0 0 0 .85c.19.21.98.17.85-.42zm.75-1.16a.58.58 0 0 0 0 .85c.21.21 1 .17.88-.41s-.59-.67-.86-.44zm2-1.19c-.12-.58-.56-.67-.83-.44a.59.59 0 0 0 0 .86c.23.21 1.02.16.89-.42zm-2.79 3.56c-.08 0-.39.44-.33.57a9.93 9.93 0 0 0 1.58.83c.11 0 .13-.38.15-.52a3.59 3.59 0 0 0 -1.34-.88zm-.91 1.21s-.57.33-.55.48a10.08 10.08 0 0 0 2.07 1.42c.21 0 .27-.17.29-.44s-1.65-1.42-1.75-1.46zm-1.09 1.11c-.14.08-.39.22-.41.39a7.9 7.9 0 0 0 2 1.65c.21 0 .37-.25.48-.42s-1.93-1.67-2.01-1.62z" fill="#1d1d1b"/></svg>