<?xml version="1.0" encoding="utf-8"?><!-- Uploaded to: SVG Repo, www.svgrepo.com, Generator: SVG Repo Mixer Tools -->
<svg width="800px" height="800px" viewBox="0 0 64 64" xmlns="http://www.w3.org/2000/svg"><path d="m57.63 28.51c-3.59-2.1-10-2.91-10-2.91a13.33 13.33 0 0 0 -2.09-5.34c-2-3.32-4.25-5.25-8.09-5.69s-8.57-.5-13.44 2.15-6.22 6.13-6.22 6.13c-3.94.22-10.79 1.03-12.79 4.22s-.69 5.65 3.15 8.59a20 20 0 0 0 8.78 3.5s2.38 6.31 8.41 9 11.48 1.25 15.66-.9a12.72 12.72 0 0 0 5.72-6.57l5.72-1.43c4.37-1.1 6-3.29 6.72-4.69s2.07-3.97-1.53-6.06zm-27.06-12.51c5-.63 6.88 1.53 8.53 2.4s3.5 1.25 3.53 1.53 0 .41-.4.53-4.07-.56-6.35-.46-3.28 1.12-4.72 1.56a15.58 15.58 0 0 1 -5.25.19c-1.56-.16-4.31-.16-4.31-.16-.25 0-.65-.31-.59-.5s4.59-4.46 9.56-5.09zm-11.06 7.22a7.88 7.88 0 0 1 3.44-.4c2.09.15 4.06.94 6.81.5s4.4-1.88 6.56-1.91 3.38.41 5.09.41 2-.31 2.35-.1a9.77 9.77 0 0 1 1.65 3.19c.47 1.38.47 2.19.32 2.28a2.81 2.81 0 0 1 -1.53.22c-.38-.15-.57-1.25-3.85-1a41.14 41.14 0 0 1 -4.25.25c-1.19 0-1.56-1.06-5-.62s-3.87 1.34-5.68.65-1.19-2-3.82-1.62-3.15.75-3.4.65 1.06-2.4 1.31-2.5zm-1.1 3.85c.33-.1 3.16-1 4.19-.44s2.16 2.25 4.38 2.06 3.09-1.56 5.93-1.12 2.91.62 4.19.59 3-.65 4.47 0 1.53.88 2.22.84 1.78-.53 2-.34.72 2.19.5 2.38-.91 1.09-9.13 1.06a95.75 95.75 0 0 1 -15.53-1.1c-2.87-.43-4.25-.71-4.34-1.31s.31-2.37 1.12-2.62zm20.94 19.44a5.31 5.31 0 0 1 -1.94.46 19.32 19.32 0 0 0 -1.81-1.81c-.22-.06-1 .22-.9.35s1.9 1.56 1.68 1.71a2.41 2.41 0 0 1 -1.37.22c-.13-.12-2.13-2.56-2.35-2.62s-.66.09-.66.18 2.37 2.62 2.25 2.65a7.81 7.81 0 0 1 -1.09.19c-.1 0-2.29-2.47-2.38-2.44s-.78.28-.72.44 1.47 1.84 1.28 1.94a13.22 13.22 0 0 1 -5.34-1.37c-2.66-1.25-3-1.65-2.91-2 0 0-.19-.9 1.91-.93s3.59.28 6 .21a8.27 8.27 0 0 1 3.62.41c.63.22.5.78 3.09.75s4.91-.69 4.85-.41a11.56 11.56 0 0 1 -3.21 2.07zm4.56-4a18.7 18.7 0 0 1 -5.59 1.1c-2.09 0-.94-.91-6-1a44.44 44.44 0 0 1 -6.32-.61 4.16 4.16 0 0 0 -2.91.56c-.94.5-1.22.81-1.53.69s-2.84-2.63-2.66-3.69c.05-.26 4.1.81 11.44 1s14.53-.28 14.56-.06a4.54 4.54 0 0 1 -.99 1.97zm12.85-7.56c-1.47 1.35-3.78 3.16-10.41 3.75a156.31 156.31 0 0 1 -21.09 0 48.39 48.39 0 0 1 -14.63-3.37c-3.53-1.39-5.28-3.79-4.53-6.23s5.16-4.59 10.41-4.66c.13 0 0 .5-.1.88s-.56 1.28-.56 1.28-1.84.16-2.37 1.06-.25 2.34 2.65 3.34a46.31 46.31 0 0 0 15.94 2.68c8.28.13 11.38.35 14.59-.84s4.32-2.66 3.91-3.37-1-1-1-1.13.19-.31.69-.34a14.63 14.63 0 0 1 6.44 2.12c2.09 1.6 1.53 3.45.06 4.79zm-14.67-9.27a.46.46 0 0 0 -.44-.78c-.56.16-.62.72-.37.91s.47.19.81-.13zm-1.35-1.08a.46.46 0 0 0 -.44-.78c-.56.15-.63.72-.38.9s.47.19.82-.12zm-1.69.26c-.56.16-.63.72-.38.91s.47.18.82-.13a.46.46 0 0 0 -.44-.78zm.23-1.72a.46.46 0 0 0 -.44-.78c-.56.16-.62.72-.37.91s.46.18.81-.13zm-6.55-4.73a14.15 14.15 0 0 1 1.75.1c.37-.07.22-.19.28-.47s-.16-.28-1.13-.41a3.91 3.91 0 0 0 -1.87 0c-.16.13 0 .75.15.85s.22.06.82-.07zm9.69 4.75a.46.46 0 0 0 -.43-.78c-.57.16-.63.72-.38.91s.47.18.81-.13zm-16.69-2.75c.18 0 .28-.12.87-.44s1.56-.15 1.81-.28.07-.28 0-.5-.9-.25-1.59-.12a3.67 3.67 0 0 0 -1.66.78c-.06.15.38.53.57.56zm18.17 5.88c.25.18.47.18.82-.13a.46.46 0 0 0 -.44-.78c-.56.16-.63.72-.38.91zm-7.08-1c.25.19.47.19.81-.13a.46.46 0 0 0 -.43-.78c-.57.18-.63.74-.38.93zm6.94-.65a.46.46 0 0 0 -.44-.78c-.56.16-.62.72-.37.91s.46.23.81-.11zm-11.91.19a.57.57 0 0 0 .78-.34c.1-.38-.05-.71-.65-.44s-.38.67-.13.8zm4.06 11.62c-4.78-.06-8.47-.8-9-.75-.32 0-.29 1 0 1.07s1.19.28 7.6.59 7.4-.22 7.53-.28.09-.47 0-.69-1.34.15-6.13.08zm18.69-4.63c-.31 0-2.34 1.69-4.47 2.56s-4.15.6-4.37.88-.06.81.37.87a18.35 18.35 0 0 0 5.13-1.28 10.9 10.9 0 0 0 3.81-2.53c.06-.13-.16-.47-.47-.5zm-16.6 13.53a1.75 1.75 0 0 0 -.69.12c-.16.13.62.82.62.82a2.57 2.57 0 0 0 1-.28c.23-.22-.67-.63-.93-.66zm-30-14.91c-.09-.81.56-1.4.62-1.62s-.08-.22-.62-.22a3.17 3.17 0 0 0 -.88 2c-.12 1.31 1.29 1.66 1.39 1.72s.5-.13.69-.31-.16-.16-.44-.32a1.41 1.41 0 0 1 -.76-1.25zm28.8-6.67a.46.46 0 0 0 -.44-.79c-.56.16-.62.72-.37.91s.47.19.81-.12zm-22.8 8.36c.31-.16.15-.19 0-.41s-2-.4-2.71-1.43.68-2.19.78-2.35-.53-.26-.72-.15a2 2 0 0 0 -.88 2.87c.73 1.72 3.16 1.63 3.53 1.47zm20.7-7.66a.46.46 0 0 0 -.44-.78c-.56.16-.63.72-.38.91s.47.19.82-.13zm-18.41 10.91a8.41 8.41 0 0 1 -3.72-1.66c-.22 0-.69.66-.69.94s.57.5 2.85 1.22a34.91 34.91 0 0 0 5.27 1.22c.31 0 .37-.81.34-.91a39.23 39.23 0 0 0 -4.05-.81zm25.53-4.72a18.62 18.62 0 0 0 2.31-.22c.19-.09-.15-.43-.28-.56a9 9 0 0 0 -2.06.09 16.63 16.63 0 0 1 -2 0c-.13 0-.44.66-.31.79a8.11 8.11 0 0 0 2.34-.1zm-20.82-1.56a32.51 32.51 0 0 0 3.41.34c.34-.06.21-.06.18-.28a20.09 20.09 0 0 0 -4.22-1 .72.72 0 0 0 -.5.69c.13.15.42.15 1.13.25zm9.06 1.78a13.92 13.92 0 0 0 3 0c.22-.09 0-.34-.06-.53s-.53 0-1.53-.06a19.14 19.14 0 0 0 -3.02-.29c-.16.1-.38.6-.13.69s.25.1 1.78.19z" fill="#1d1d1b"/></svg>