<?xml version="1.0" encoding="utf-8"?><!-- Uploaded to: SVG Repo, www.svgrepo.com, Generator: SVG Repo Mixer Tools -->
<svg width="800px" height="800px" viewBox="0 0 64 64" xmlns="http://www.w3.org/2000/svg"><path d="m19.5 49.53a10.47 10.47 0 0 0 .25 1.54.42.42 0 0 0 .5.25s0-1.7.08-1.87-.54-.08-.83.08zm21.5-30.29c.25-.21 0-1.54-.09-1.87s-.81-.18-.75.08 0 1.67 0 1.83.63.17.84-.04zm-1.71 6.46a12.46 12.46 0 0 0 2.46-1.7 1.82 1.82 0 0 0 -.71-.83c-.25-.13-2.29 1.75-2.42 1.83a4.71 4.71 0 0 0 .67.7zm-12.63 24a1.94 1.94 0 0 0 -.87 2.92c.62 1 3.37 1.29 3.41-.75s-1.51-2.51-2.54-2.17zm-.11 2.36a1 1 0 1 1 1.73-.38c-.02 1.04-1.41.89-1.73.38zm20.32-37.4a1.93 1.93 0 0 0 -.87 2.91c.62 1 3.37 1.3 3.41-.75s-1.51-2.5-2.54-2.16zm-.11 2.34a1 1 0 1 1 1.73-.38c-.02 1.05-1.41.91-1.73.38zm8.94-8.7a2.36 2.36 0 0 0 -3-2.95 2.46 2.46 0 0 0 -1.5 3.75c.71.9 4.05 1.68 4.5-.78zm-2.83-1.89a1.6 1.6 0 0 1 2 1 1.38 1.38 0 0 1 -2 1.46c-1.5-.63-.87-2.05 0-2.46zm-20.08 16.21a10.76 10.76 0 0 0 .08-3.09c-.08-.37-.62-.12-1-.12s-.26 3-.16 3.16.87.17 1.08.05zm19.12-8.62c-6.08-7.43-12.78-9.43-16.71-9.43s-11.08.88-15.12 3.17-9.33 7.63-11.38 11.5a23.91 23.91 0 0 0 -2.25 16.54 24.68 24.68 0 0 0 5.42 10.67s-3.5 5.71-.75 8.37a7.73 7.73 0 0 0 9 1.5s3.33 2.84 11 3.09 11.33-1.92 16-6 9.17-8.5 10.88-17.34 0-14.66-6.09-22.07zm-31.21 38.7a2.66 2.66 0 0 1 -.91 1.3s-1-4-1.34-4.08-.83 0-.83.2 1.38 4.41 1.17 4.58a4.1 4.1 0 0 1 -.63.37s-1.33-4.54-1.58-4.58-.83.38-.71.5 1.54 4.42 1.29 4.46-.66.12-.75 0-1.41-4.25-1.62-4.25-1 .33-.88.5 1.21 3.42 1 3.46a3.87 3.87 0 0 1 -2.71-3.29 4.9 4.9 0 0 1 2.13-4.87c1.88-1.17 5-.37 5.87.92s.8 3.99.5 4.78zm30-5.17c-5.29 6.54-10.54 8.75-14 9.79s-10.16.17-12.08-.54a7.57 7.57 0 0 1 -2.92-1.87s3.66-5.56-1.2-9c-4-2.84-7.09-.34-7.09-.34a20.51 20.51 0 0 1 -5.21-11.57c-.54-6.79.8-12.17 3.38-15.62s7.58-11.75 22.58-12c3.54-.06 8.38 1.25 13.21 5.37s8.42 9.75 8.88 15.75-.25 13.5-5.55 20.03zm-12.7-34.91c.7.38 2-.21 2-.92s-1.12-2-2.12-1.25a1.28 1.28 0 0 0 .12 2.17zm-9.59 10.38a8.92 8.92 0 0 0 -1.16-2.67c-.21-.16-.9.12-.92.25a10.64 10.64 0 0 0 1.37 2.84c.3.11.59-.26.71-.42zm5 16.62a22 22 0 0 0 .46 3.5c.08.21.87.17 1 .09a20.71 20.71 0 0 0 -.33-3.75c-.09-.39-1.01-.04-1.17.11zm10.33-19s1.59-3.62-1.41-5.62-6.08 1.17-6.08 1.17c-4.75-1.25-9.34-.84-13.55 2.37a19.18 19.18 0 0 0 -7 14.71c.13 5.42 3.59 10.17 9.59 13.54s13.71 1.41 17.71-1.42 6.25-9.63 5.75-16.25-5.05-8.55-5.05-8.55zm-4.83-4.62a2.77 2.77 0 0 1 3.09 1c.83 1.29-.42 3.13-.84 3.38s-1.41-.17-1.41-.17-.25-2.09-.55-2.21-1-.12-.83.09.33 1.95.17 1.87a3.28 3.28 0 0 1 -1.17-2.17 2 2 0 0 1 1.54-1.79zm.09 29.37c-4.67 1.87-12.55 1.7-16.84-2.84s-5.46-10.08-3.33-15.46 8.33-11.16 16.67-9.45a3.55 3.55 0 0 0 2.33 4.16c3 1 4.62.21 4.62.21s4.55 2.25 4.55 8.92-3.34 12.58-8 14.46zm-9.17-6.13c-.21 0-1.87 3.5-1.42 3.5.21 0 .63.46.88.25a22 22 0 0 0 1.25-3.33c.08-.34-.54-.38-.71-.42zm9.62-3c-.2 0-.83.66-.66.83a17.85 17.85 0 0 0 2.83 2c.29 0 .54-.55.54-.92s-2.5-1.87-2.71-1.91zm1.3-6.12c0 .25-.21.7 0 .87a17.73 17.73 0 0 0 3.87.21.79.79 0 0 0 0-.71c-.12-.37-3.85-.49-3.87-.37zm-11.59-5.12c-5.58 2.37-5.12 7.83-2 11.62s11.88 1.63 11.92-5.16-7.22-7.66-9.92-6.46zm-.75 10.34c-2.37-2.84-2.71-6.92 1.47-8.7 2-.86 7.48-.25 7.45 4.83s-6.55 6.66-8.92 3.82zm-3.83 2.36c-.21-.13-2.29 2-2.13 2.17s.17.75.5.79 2-2 2.09-2.29-.25-.55-.46-.67zm-1.58-8.25c-.09-.29-2.71-.79-2.92-.79 0 0-.46 1-.25 1.16a23.58 23.58 0 0 0 3 .55c.33 0 .29-.63.17-.92zm1.87-4a1.79 1.79 0 0 0 .34-.79c0-.33-2.34-1-2.34-1-.29.12-.71.71-.66.87a18.23 18.23 0 0 0 2.7.96zm-1.87 7.67a5.38 5.38 0 0 0 -2.75.08c-.13.17-.09 1 .08 1.08a11.69 11.69 0 0 0 2.79-.28c.17-.13 0-.68-.12-.88z" fill="#1d1d1b"/></svg>