<?xml version="1.0" encoding="utf-8"?><!-- Uploaded to: SVG Repo, www.svgrepo.com, Generator: SVG Repo Mixer Tools -->
<svg width="800px" height="800px" viewBox="0 0 64 64" xmlns="http://www.w3.org/2000/svg"><path d="m50.73 40.75c.21.08.25-.67.17-1s-1-.88-1.29-1c0 0-.54.58-.46.83a6 6 0 0 0 1.58 1.17zm.34 3.12c.16 0 .16-.67.12-1s-2.58-2.35-2.58-2c0 0-.38.46-.38.83s2.67 2.13 2.84 2.17zm0 1.29a15 15 0 0 0 -3.2-2.46c-.13 0-.55.59-.42.84a16.39 16.39 0 0 0 3.42 2.37c.32 0 .13-.46.13-.75zm-11.08-5c-.17-.08-.83.09-.79.33a18.05 18.05 0 0 0 2.29 3.13c.29.17.54-.29.58-.63a12.7 12.7 0 0 0 -2.13-2.87zm-2.42 1.04s-.67.34-.75.67 2.41 2.67 2.54 2.79.66-.29.83-.54-2.42-2.83-2.62-2.92zm-2.38 1.38c-.21 0-.62.5-.67.75a18.89 18.89 0 0 0 3.21 2.67c.25.08.63-.38.67-.59a19.63 19.63 0 0 0 -3.21-2.83zm-1.87 1.67s-.63.66-.63.91a12.56 12.56 0 0 0 3.25 2c.46.08.38-.29.46-.58s-2.87-2.58-3.08-2.33zm-9.59-27.5a22.37 22.37 0 0 1 1.27-3.38c0-.21-.83 0-1 .08a6.64 6.64 0 0 0 -1.12 2.67 21.29 21.29 0 0 0 -.61 2.88 2.91 2.91 0 0 0 1.09-.25c.25-.21.12-.63.37-2zm7.71-10.75c-.12-.37 0-.79-.54-.75s-3.32 3.18-3 3.3a2.22 2.22 0 0 0 1 .25c.29-.09.25-.25.79-.92s1.88-1.55 1.75-1.88zm6.75 13.34c-3.92-3.34-10.38-2.21-13.67 1a10.71 10.71 0 0 0 -3.16 10 10.83 10.83 0 0 0 8.83 7.91c5.67 1.13 10.71-1.58 11.92-6.5s0-9.13-3.92-12.46zm2.89 12c-1.08 4.36-5.63 6.8-10.72 5.79a9.77 9.77 0 0 1 -7.95-7.13 9.6 9.6 0 0 1 2.85-9c2.95-2.85 8.77-3.87 12.29-.87a10.32 10.32 0 0 1 3.53 11.15zm-5.6-8.34c-2.25-1.91-5.95-1.27-7.83.55a6.13 6.13 0 0 0 -1.82 5.73 6.24 6.24 0 0 0 5.06 4.54c3.25.64 6.14-.91 6.83-3.73a6.57 6.57 0 0 0 -2.24-7.15zm.52 6.38c-.49 2-2.52 3.06-4.79 2.61a4.39 4.39 0 0 1 -3.56-3.18 4.35 4.35 0 0 1 6.77-4.41 4.62 4.62 0 0 1 1.58 4.98zm-2.81-8.88a1.29 1.29 0 0 0 -1.6-1.67 1.32 1.32 0 0 0 -.69 2.17c.37.41 1.96.45 2.29-.5zm-1.41-1a.55.55 0 0 1 .69.71c-.14.41-.82.39-1 .2a.57.57 0 0 1 .31-.9zm5 1.4a1.32 1.32 0 0 0 -.65 2.1c.37.46 2 .5 2.29-.46a1.29 1.29 0 0 0 -1.6-1.63zm.88 1.39c-.14.41-.82.4-1 .2a.57.57 0 0 1 .29-.91.55.55 0 0 1 .75.72zm3.39 5.53a1.29 1.29 0 0 0 -1.61-1.67 1.33 1.33 0 0 0 -.69 2.13c.42.47 2 .51 2.34-.45zm-1.41-1a.55.55 0 0 1 .69.71.67.67 0 0 1 -1 .2.57.57 0 0 1 .35-.89zm-2.26 7c.37.46 2 .5 2.29-.46a1.29 1.29 0 0 0 -1.6-1.67 1.33 1.33 0 0 0 -.65 2.14zm1.62-.73c-.14.41-.82.4-1 .2a.57.57 0 0 1 .3-.91.55.55 0 0 1 .7.71zm-5.6 1.34a1.33 1.33 0 0 0 -.69 2.13c.38.46 2 .5 2.29-.46a1.29 1.29 0 0 0 -1.6-1.67zm.88 1.39c-.14.41-.82.4-1 .2a.57.57 0 0 1 .3-.91.54.54 0 0 1 .7.71zm-6.05-2.24a1.33 1.33 0 0 0 -.69 2.12c.38.46 2 .5 2.3-.45a1.29 1.29 0 0 0 -1.61-1.67zm.89 1.42a.67.67 0 0 1 -1 .2.57.57 0 0 1 .29-.91.55.55 0 0 1 .71.71zm-4.49-4.7a1.32 1.32 0 0 0 -.69 2.12c.38.46 2 .5 2.29-.46a1.28 1.28 0 0 0 -1.6-1.69zm.88 1.39c-.14.41-.82.39-1 .19a.57.57 0 0 1 .3-.91.55.55 0 0 1 .7.69zm-.24-4.29a1.29 1.29 0 0 0 -1.6-1.67 1.33 1.33 0 0 0 -.67 2.1c.36.46 1.94.5 2.27-.46zm-1.4-1a.54.54 0 0 1 .68.71c-.14.41-.82.4-1 .2a.57.57 0 0 1 .32-.93zm3.92-3.82a1.29 1.29 0 0 0 -1.6-1.67 1.33 1.33 0 0 0 -.69 2.09c.38.47 1.96.52 2.29-.44zm-1.4-1a.55.55 0 0 1 .69.71c-.15.41-.82.39-1 .2a.57.57 0 0 1 .31-.92zm-17.15 33.68a10.06 10.06 0 0 0 .41-1.26.81.81 0 0 0 -.47-.75c-.25-.06-.66.91-.66.91s-.43-.44-.68-.34 0 1 0 1a3.14 3.14 0 0 0 -.94-.19c-.19.06-.16.28-.16.47s.82.62.82.62-1.07.44-1.25.54.5.75.62.81 1-.72 1-.72.13.84.13 1.06.31.13.56.16.38-1.13.38-1.13a5.81 5.81 0 0 0 1.35.41c.37 0 .28-.31.28-.75s-1.39-.84-1.39-.84zm-.15-33.26a4.5 4.5 0 0 0 .09 1.78c.25.34 1.5-.78 1.5-.78s1.37.68 1.69.5-.28-1.25-.28-1.25.87-.57.93-1-1.37-.4-1.59-.4-.63-1.75-1-1.66-.45 1.63-.69 1.63c-.41 0-1.59.18-1.62.56s.97.62.97.62zm1.91-10.65c.1.06-.31 1.81.22 1.84s1.34-1.25 1.5-1.34 2 .78 2.38.47-.88-1.56-.88-1.56 1.16-1 .88-1.35-1.5 0-1.69.13-1.35-1.6-1.69-1.38-.25 1.5-.28 1.72-1.54.28-1.63.66 1.09.75 1.19.81zm36.22-.47c.06.13-.72 1.56-.47 1.78s1.81-.84 1.94-.9 1.31 1.56 1.77 1.24-.37-1.66-.37-1.66 1.4-.34 1.4-.72-1.56-.75-1.56-.75-.06-1.62-.38-1.66-1.21 1.29-1.31 1.35-1.91-.5-2 0 .91 1.2.97 1.32zm7.65 12c-.63-.12-1.21 1.71-1.59 1.79s-1.71-.95-1.83-.5 1.08 1.59 1.17 1.75-1.34 1.21-1.09 1.63 1.5-.33 1.75-.29.67 2 1.13 1.75.17-1.92.42-2.09 1.25 0 1.41-.58-1.25-.83-1.37-1 .61-2.34-.01-2.43zm-.92 26c.42-.42.63-12.79.21-14s-7.16-5.26-7.16-5.26-.37-2.87-.66-5.08-1.65-6.42-5.34-13.54-7.45-9.46-8.29-9.42a9.76 9.76 0 0 0 -5.29 2.79 39.29 39.29 0 0 0 -8.42 13.21 34.31 34.31 0 0 0 -1.93 11.42c-2.34 1.34-7.25 4.71-7.75 5.59s.41 14.71.45 14.91 2.8.3 5.21-1.12a26.51 26.51 0 0 0 5.21-4.71s1.54 3 1.88 3.58 1.41.84 1.41.84.38 1.41.54 1.75 1.13.37 1.13.37.87 3 .92 3.13a7.11 7.11 0 0 0 1.54.21 4.1 4.1 0 0 0 -.79 2.12c0 1.08 1.25 1.75 2.87 2.21a3.6 3.6 0 0 1 2.25 2.12 1 1 0 0 0 .88.25c.41 0 .5-.88 1.87-1.79s3.13-.46 4.42-2-.63-3.5-.63-3.5a3.65 3.65 0 0 0 1.42-.13c.29-.17.1-2.83.1-2.83a10.33 10.33 0 0 0 2.25-.3c.34-.2.13-2.5.13-2.5a2.51 2.51 0 0 0 1-.37 8.62 8.62 0 0 0 1-2.13 7.49 7.49 0 0 0 2.62 2.3c1.9 1.16 6.52 2.29 6.94 1.87zm-21.76-45.47c2.54-.12 5.67 6.79 5.33 6.84a11.93 11.93 0 0 0 -6.58-.8c-4.46.55-6.08.84-6.08.84.14-.38 4.79-6.75 7.33-6.88zm-13.04 38.59c-.13 0-2.75-3-3-2.87s-.71.71-.58.92 2.66 2.75 2.5 3-1.07 1.15-1.07 1.15a28.82 28.82 0 0 0 -2.23-3.2c-.2 0-.91.75-.75 1s2.25 2.58 2.05 2.91a5 5 0 0 1 -.63.75 18.5 18.5 0 0 0 -1.92-2.21c-.16 0-.79.55-.62.84s1.79 1.71 1.42 2-2.71 1.54-2.71 1.25-.61-11.71-.38-12.29c.18-.42 5.71-4.13 5.79-3.88a43.84 43.84 0 0 0 .92 6.63c.71 2.37 1.33 4 1.21 4zm19.06 13.79c-.78.9-3.25 1.15-4.47 2.12a9 9 0 0 0 -1.25 1.09 3.7 3.7 0 0 0 -2.31-2c-1.88-.68-2.25-.87-2.28-1.4s.06-1.88.62-2.16c.12-.06 1.85-.12 1.85-.12a1.51 1.51 0 0 0 .53 1.65c.87.75 1.59.66 1.75 1s.09.69.37.75a.58.58 0 0 0 .63-.19c.15-.18.31-1 .81-1s1.66.32 2.06-.4a3.09 3.09 0 0 0 .22-1.78 4 4 0 0 1 .88 0c.28 0 1.38 1.53.59 2.44zm-6.84-2.57a24.41 24.41 0 0 1 4-.25c.28.13.59.91.25 1.13s-1.53.41-1.88.75-.31.5-.47.44a5.32 5.32 0 0 1 -1.37-.82c-.47-.47-.66-1.15-.53-1.25zm7.53-1.09s-1.22-.53-6-.16-5.85.6-6 .47a9.82 9.82 0 0 1 -.53-2c0-.25 3.12.13 6.81 0s5.72-.37 5.78-.25-.06 1.94-.06 1.94zm5.71-13.8s-1.29-1.79-1.54-1.71-.67.38-.46.63a17.83 17.83 0 0 1 1.79 2.41 6.75 6.75 0 0 1 -.46 1.25 27.41 27.41 0 0 0 -2-2.62c-.17 0-.79.12-.67.46s2.42 3.16 2.42 3.58a6.69 6.69 0 0 1 -1.33 2.58c-.38.21-3.13.71-3.3 1.09s-.29 1.25 0 1.33 2.46 0 2.46.29.08 1.17 0 1.21a49.85 49.85 0 0 1 -8.88.71c-5.12 0-7.37 0-7.5-.21s-.41-1.25-.25-1.21 2.25.33 3.34.38 1.41 0 1.5-.13a6.56 6.56 0 0 0 -.25-1.37s-4.83-.34-5.58-.75c0 0-3.46-6.13-4.25-10.46s-1.08-9.79.35-14.46a34.62 34.62 0 0 1 3.54-8.5 15.72 15.72 0 0 1 8.88-2.17c5 .25 6.29 1.34 6.62 1.54a43.36 43.36 0 0 1 5.46 13.88 40 40 0 0 1 .11 12.25zm.83 4.67s.33-.71 1.25-3.63a25.23 25.23 0 0 0 .58-7.54c.38.21 4.84 4 5 4.13s0 10.75 0 10.75a9.68 9.68 0 0 1 -3.75-1 17.92 17.92 0 0 1 -3.08-2.71zm3.74 9.78s.12-1.16.16-1.35-.16-.21-.47-.21-1.47 1.63-1.57 1.78-1.57-.12-1.68 0a1 1 0 0 0 -.07.81c.13.22.85.34.94.47s-.81 1.81-.81 2.09 1.25 0 1.5-.12a2.34 2.34 0 0 0 .5-.85s.72 1 1.06 1 .6-.18.6-.43-.6-1-.47-1.13a4.62 4.62 0 0 0 .37-.59 7.4 7.4 0 0 1 1.16-.35c.37-.12.22-.53.09-.75s-1.31-.33-1.31-.33zm-31.88-.68c-.15 0-.4-2-.78-2s-1 1.66-1.06 1.91a12.09 12.09 0 0 0 -2.16.18c-.25.16 0 .41.13.6s1.56.31 1.62.4a18.1 18.1 0 0 1 -.87 1.91c-.06.19.31.31.66.37s1.16-1.21 1.16-1.21.34 1 .44 1.28.62.15.84 0 0-1.88 0-2.1 1.35-.15 1.35-.15.28-.44.15-.75-1.32-.41-1.48-.44zm40-44.34c-.06-.16.38-2.25 0-2.44s-1.59 1.4-1.72 1.53-2.31-.71-2.43-.47c-.25.47 1.59 1.19 1.62 1.53s-1 1.6-.62 2 1.65-.56 1.87-.47 1.13 1.22 1.41 1.07-.13-1.5-.1-1.6 1.1-.18 1.1-.47-1.09-.53-1.16-.68zm-.93 43.09c-2.66.41-4.41 2.31-3.88 4.78a3.21 3.21 0 0 0 3.06 2.69c.41 0 .63-.38.53-.88s-1.25-1-.78-2.9a2.82 2.82 0 0 1 2.57-2.07c.31-.12.34-.34-.1-.93s-.66-.81-1.43-.69zm-.22 1.15a4.22 4.22 0 0 0 -2 2.37c-.31 1.44.56 2.38.34 2.56s-1.47-.78-1.22-2.46a3.9 3.9 0 0 1 2.63-2.91c.27-.05.53.23.25.44z" fill="#1d1d1b"/></svg>