<?xml version="1.0" encoding="utf-8"?><!-- Uploaded to: SVG Repo, www.svgrepo.com, Generator: SVG Repo Mixer Tools -->
<svg width="800px" height="800px" viewBox="0 0 64 64" xmlns="http://www.w3.org/2000/svg"><path d="m59.61 29.66c-.5-5.5-2.61-15.75-6.61-17.46s-8.25.21-12.37.67a62.72 62.72 0 0 1 -13.46 0c-6.09-.5-11.88-2.08-14.63-1-1.33.5-3.66 3.08-4.75 5.08s-3.89 11.42-3.68 19.5a29 29 0 0 0 5.25 15.55c.83 1 3.66.5 4.83.13s12.42-4.34 18.75-4.38 21.83 4.63 22.12 4.63 2-2 3.55-6.59 1.5-10.63 1-16.13zm-7.3-15.66a7.12 7.12 0 0 1 1.75 2.13c0 .12-7.83 13.62-8.41 15.41a7.39 7.39 0 0 0 .25 4.84c.46 1.16 1.12 3.29 1.12 3.29-.12-.21-3.54-5.17-3.71-6s3.92-10.5 5.46-13.29 3.23-6.47 3.54-6.38zm-36-1.33c2.59.12 8.59 2 16.42 1.87a135.51 135.51 0 0 0 15-1 21.36 21.36 0 0 1 2.83-.13s-4.33 8.79-5.83 11.88a51 51 0 0 0 -2.88 6.41c-.08.67-.12 1.67-.12 1.67a27 27 0 0 0 -4.73-.46c-2.37 0-4.08 0-4.08 0s3.23-5.91-1.19-10.42-9.73-2.08-11.08-1.33a5.67 5.67 0 0 0 -2 2.13s-5.3-9.67-5.34-9.88c-.04 0 .42-.92 3-.79zm7.17 17.79c.17.29 1.71 2.88 1.46 2.92a12.19 12.19 0 0 1 -1.33 0 7.33 7.33 0 0 0 -1.05-3.38c-1-1.54-3.25-5.75-3.25-5.75a7.45 7.45 0 0 1 5.55-3.25c3.62-.16 6.62 1.5 7.62 4.92a12.55 12.55 0 0 1 -.37 7s-4.59.21-5.13.25l-1 .08a26.09 26.09 0 0 0 -1.87-3.25c-.25 0-.8.12-.63.41zm-11.54-16.3s10.25 18.71 10.06 19.17a47.19 47.19 0 0 1 -5 5.29c-.08-.21 2.79-5.54 2.79-5.79a64.36 64.36 0 0 0 -5.5-10.09c-2.79-4.08-4-5.37-4-5.75s1.32-2.91 1.65-2.83zm4.92 20.5a4.59 4.59 0 0 1 -.75-2.21 7.28 7.28 0 0 1 .37-2.58 11.92 11.92 0 0 1 1.46 2.42c-.08.29-1.08 2.37-1.08 2.37zm-8 12.5a27.44 27.44 0 0 1 -3-13c.37-6.5 2.62-14.46 3.66-15.29.15-.12 6.25 9.92 6.25 9.92a6.31 6.31 0 0 0 -.54 3.91 10.33 10.33 0 0 0 1.17 3.38l-5.84 8.92c-.79 1.16-1.56 2.33-1.7 2.16zm25.2-1.08c-7.45 0-18.12 3.62-19 3.91a13.72 13.72 0 0 1 -3.58.84c-.33-.17-1.17-1-1-1.29s4-5.59 6.63-8.59a78.25 78.25 0 0 1 6.12-6.16c.17 0 4.46-.46 9.83-.46s8.55.66 8.84.83 10.83 14.29 10.54 14.54-10.92-3.58-18.38-3.62zm23.84-12.21a75.13 75.13 0 0 1 -2.13 13.83s-4.21-4.91-6.12-7.7-3.21-5.5-2.38-7.66c.67-1.75 7.67-14.84 7.88-14.55a32.66 32.66 0 0 1 2.75 16.08zm-45.59-8.17c-.12-.75-1.05-1.61-1.91-1.21a1.58 1.58 0 0 0 -.21 2.5c.81.75 2.25-.54 2.12-1.29zm-.91 4.54c-.67.84-.63 2.3.5 2.46a1.33 1.33 0 0 0 1.58-1.62c-.29-.79-1.67-1.35-2.08-.84zm-.09 7.92c0-1-1.52-1.67-2.12-1.17a1.5 1.5 0 0 0 .12 2.59 1.61 1.61 0 0 0 2-1.42zm-1.58-5.33c.21-.67-.77-1.37-1.21-1.17-.91.42-.58 1.21-.21 1.58a.89.89 0 0 0 1.42-.41zm11.46-15.63c.25-.66-.71-1.08-1-1s-.88.67-.54 1.05 1.29.62 1.54-.05zm9 2.38c.33.37 1.29.58 1.54-.09s-.71-1.08-1-.95-.83.66-.5 1.04zm14-2.92c.25-.67-.71-1.09-1-1s-.87.67-.54 1 1.35.67 1.58 0zm0 3.46c.34.37 1.29.58 1.54-.08s-.71-1.09-1-1-.79.7-.46 1.08zm-6 8c.25-.67-.71-1.09-1-1s-.87.67-.54 1 1.35.62 1.62-.04zm2.59-1.34c-.38.17-.88.67-.55 1.05s1.3.58 1.55-.09-.63-1.12-.92-1zm14.37 4.09c.25-.67-.71-1.09-1-1s-.87.67-.54 1 1.39.62 1.62-.04zm-4-2.46c-.37.17-.87.67-.54 1s1.29.58 1.54-.08-.59-1.09-.88-.96zm-1 4.58c-.37.17-.87.67-.54 1s1.29.59 1.54-.08-.59-1.09-.88-.91zm-11.75-2.7c-.38.16-.88.66-.54 1s1.29.58 1.54-.09-.71-1.04-1-.91zm-14-12.13c.58.33 1.79.21 1.87-.71s-.74-1.23-1.41-1.12a1 1 0 0 0 -.42 1.83zm3.83-.68c.68.39 2.11.24 2.2-.84s-.87-1.44-1.66-1.32a1.21 1.21 0 0 0 -.5 2.16zm.77-1.48c.3 0 .67.09.64.51s-.58.46-.85.31a.46.46 0 0 1 .21-.82zm24.71 8.57a1.21 1.21 0 0 0 -.54 2.16c.69.39 2.11.24 2.21-.84s-.87-1.4-1.66-1.28zm0 1.54a.46.46 0 0 1 .21-.82c.3 0 .67.1.63.51s-.55.5-.83.35zm1.34 12.78c.1-1.07-.88-1.44-1.67-1.32a1.21 1.21 0 0 0 -.54 2.16c.7.43 2.16.27 2.22-.8zm-1.67.22a.46.46 0 0 1 .2-.82c.3 0 .68.1.64.51s-.57.5-.83.35zm-26.44-6.87a16 16 0 0 0 -1.42-3.08c-.12-.17-.81.12-.75.25s1.29 2.88 1.46 3.08.58-.04.71-.25zm-.08-2.45s.75 2.5.83 2.62.54 0 .75-.12-.79-2.59-.83-2.71-.75.21-.75.21zm1.83.91c.58 1.29 2.54 1.13 3.21-.46a1.75 1.75 0 0 0 -2-2.45c-1.54.21-1.79 1.62-1.21 2.91zm1.31-2.32a1.26 1.26 0 1 1 -.85 2c-.37-.89-.15-1.86.85-2zm-2.3-2.44c1.42-.08 2-2 .73-3.16a1.75 1.75 0 0 0 -3 .95c-.34 1.55.89 2.27 2.3 2.21zm-1.68-2.09a1.26 1.26 0 1 1 1.55 1.52c-.93.05-1.78-.46-1.52-1.52zm9.39-.31a2.09 2.09 0 0 0 2.12.75s2.37 1.71 3.58.71-.75-3.08-.75-3.08a3.17 3.17 0 0 0 -.21-2.25 2.05 2.05 0 0 0 -1.71-1.12s-2.25-2-3.42-.92-.21 3.17-.21 3.17a3.23 3.23 0 0 0 .63 2.74zm4.79-.75s.75.95.33 1.33-1.7-.38-1.7-.38a2.49 2.49 0 0 0 .83-.41c.49-.33.57-.54.57-.54zm-1-3.25c1.58 1.12-.29 3.08-.58 3.25a3.82 3.82 0 0 1 -.62.21s-1.25 0-2.12-2.34c.02.04 1.73-2.25 3.31-1.12zm-3.42-1.38a1.16 1.16 0 0 1 1.42.38 6.05 6.05 0 0 0 -1 .5 2.22 2.22 0 0 0 -.79.91s-.55-1.41.36-1.79zm17.7 24.21a3.11 3.11 0 0 0 -.42.42 20.44 20.44 0 0 0 2.13 2l.29-.46s-1.83-2.09-2-1.96zm.83-1.08c-.2 0-.41.62-.41.62s1.75 1.5 1.87 1.58.29-.25.34-.5-1.59-1.66-1.8-1.7zm1.92.75a1.72 1.72 0 0 0 .25-.75c0-.25-.71-.75-.83-.75s-.38.5-.38.5zm-25.08-6.84c-4.75 1.84-4.92 6.34-2.84 9.25s10.38 1.75 10.38-3.45-4.54-6.95-7.54-5.8zm-2 8.53c-1.71-2.39-1.58-6.09 2.33-7.59 2.46-1 6.19.41 6.19 4.72s-6.83 5.27-8.54 2.87zm2.5-5.73a.64.64 0 0 0 -.34-.54c-.33-.16-1.16.21-1.87 1.25a2.39 2.39 0 0 0 -.54 1.75 1.92 1.92 0 0 0 .5.17 3.32 3.32 0 0 1 .54-1.5 2.73 2.73 0 0 1 1.71-1.13zm-.75 1a4.43 4.43 0 0 0 -1.17 2.34 2.62 2.62 0 0 0 1.17 2.08c.25.08.54-.21.66-.38s-.08-.12-.45-.41-.63-.75-.42-1.92a1.94 1.94 0 0 1 1-1.42c.04-.17-.61-.44-.79-.29zm4.58.38c-.25 0-.29.37-.29.37a2.3 2.3 0 0 1 .46 2.25c-.46 1.38-2.67 1.38-2.84 1.38s-.08.54-.08.54a6.13 6.13 0 0 0 1 .08 2.86 2.86 0 0 0 2.67-2 2.11 2.11 0 0 0 -.92-2.67zm-1.62 2.25a1 1 0 0 0 -.13-1.42s.79-2.58.83-2.83-.37-.29-.7-.25-.92 2.87-.92 2.87c-.54-.08-1.21.75-1 1.38a1.12 1.12 0 0 0 1.92.2zm-12.3-.75a2 2 0 0 0 2.8-2c-.25-1.29-1.47-1.4-2.46-1a1.68 1.68 0 0 0 -.34 2.95zm.62-2.35c.59-.23 1.31-.17 1.45.59a1.16 1.16 0 0 1 -1.63 1.11 1 1 0 0 1 .18-1.75zm19.56 1.45a1.16 1.16 0 0 0 1.64-1.15c-.14-.76-.86-.83-1.45-.59a1 1 0 0 0 -.19 1.69zm-.57-3.19c-.14-.77-.86-.83-1.45-.59a1 1 0 0 0 -.19 1.74 1.16 1.16 0 0 0 1.64-1.2zm-21.83 6.5c-.18-.94-1.07-1-1.8-.73a1.23 1.23 0 0 0 -.24 2.16 1.44 1.44 0 0 0 2.04-1.43zm-1.63.85a.56.56 0 0 1 .11-1c.33-.13.74-.09.82.34a.66.66 0 0 1 -.93.66zm3.29-2.14a1.23 1.23 0 0 0 -.24 2.16 1.44 1.44 0 0 0 2-1.43c-.1-.96-.99-1.04-1.76-.73zm.17 1.58a.56.56 0 0 1 .11-1c.33-.13.74-.1.82.33a.66.66 0 0 1 -.89.65zm-6.17 2.57a1.22 1.22 0 0 0 -.24 2.16 1.44 1.44 0 0 0 2-1.43c-.19-.95-1.08-1.02-1.76-.73zm.17 1.57a.55.55 0 0 1 .11-1c.33-.14.73-.1.82.33a.66.66 0 0 1 -.97.67zm4-2.53a1.23 1.23 0 0 0 -.25 2.16 1.44 1.44 0 0 0 2-1.43c-.18-.92-1.07-1.02-1.79-.73zm.16 1.58a.57.57 0 0 1 .11-1c.33-.13.74-.1.82.33a.66.66 0 0 1 -.97.67zm4.42-2.77a1.23 1.23 0 0 0 -.24 2.16 1.44 1.44 0 0 0 2-1.43c-.15-.96-1.03-1.04-1.76-.73zm.17 1.58a.56.56 0 0 1 .11-1c.33-.13.73-.1.82.33a.66.66 0 0 1 -.93.65zm16.73-1.82c0 .34 1.75.25 1.75.25s.08 1.12 0 1.13c-1.17.12-1.25 1 .08 1.33s2.29-.12 2.33-.62-1-.71-1-.71.13-.71.13-.83 2.08.16 2.33.12.42-2 .42-2.29-5.67-.83-6-.83-.04 2.1-.04 2.43zm.83-1.54c.25 0 4.25.29 4.33.59s-.25.91-.25.91-4-.5-4.12-.54-.21-.94.04-.98z" fill="#1d1d1b"/></svg>