<?xml version="1.0" encoding="utf-8"?><!-- Uploaded to: SVG Repo, www.svgrepo.com, Generator: SVG Repo Mixer Tools -->
<svg width="800px" height="800px" viewBox="0 0 64 64" xmlns="http://www.w3.org/2000/svg"><path d="m34.35 30.83c2-1.42 3.21-8.84 3.63-11.92s-1.67-4.29-4.29-4-7 1.34-8.5 2.63c-1.21 1-.8 2.75-.46 4.12s3.16 8.63 3.79 9.34 3.83 1.24 5.83-.17zm-5.46-3.13a40.81 40.81 0 0 1 -2.5-7.83c0-.88-.08-1.25.8-1.75.59-.34 7.5-2 8.29-1.38s0 3.55 0 3.55-.83-.46-1-.34-.63.5-.33.67 1.08.29 1.08.5a7 7 0 0 1 -.21 1s-2.17-1.17-2.33-.84-.25.38-.09.55 2.34.75 2.3 1.08-.13.79-.13.79a21.66 21.66 0 0 0 -3-1.08c-.08.12-.33.66-.21.79s2.92 1 2.88 1.29-.21.92-.21.92a19.23 19.23 0 0 0 -3-1.25c-.08.16-.33.54-.08.71s3.08 1.25 3 1.45-.17.8-.34.75-2.91-1.37-3.16-1.2-.38.62-.17.75a23.51 23.51 0 0 1 3.21 1.45c0 .21 0 .63-.17.67s-2.79-1-2.92-.92-.33.5 0 .71 2.71.71 2.5.92a4 4 0 0 1 -1.91.54c-.8 0-1.19.13-2.3-2.5zm1.75-15.7a23.26 23.26 0 0 0 -.79-4.41c-.12-.25-.9-.17-1 0a43.4 43.4 0 0 0 1.15 4.61c.1.17.48-.04.64-.2zm4-.25a13.2 13.2 0 0 0 .41-4.37.73.73 0 0 0 -1-.21 33.8 33.8 0 0 0 -.08 4.5c.09.12.47.12.72.03zm7.54 0c.33-.21-.27-1.17-.59-1-.12.09-2.7 3-2.87 3.13s.21.25.42.29 2.75-2.26 3.09-2.47zm-2.24 8.25a46.81 46.81 0 0 0 5.29-.87c.41-.13 0-.63-.17-.92s-5.16.83-5.12 1-.17.62 0 .79zm.16 3.34c-.33.16-.16.58 0 .75a56.78 56.78 0 0 0 6.13.45c.37 0 .12-.33.12-.62s-6.09-.71-6.25-.63zm-.1 4.74c-.25.08-.67.46-.42.71a33.76 33.76 0 0 0 4.5 1.54c.21 0 .29-.25.42-.59s-4.36-1.74-4.5-1.66zm-3.46 4.46c-.17.2 4 4.58 4.25 4.66s.58-.29.75-.5-4.16-4.7-4.31-4.62a2.72 2.72 0 0 0 -.71.46zm-2 5c.67-3.13-2.65-4.22-4.33-3.21a3.12 3.12 0 0 0 -.77 4.67 3 3 0 0 0 5.12-1.46zm-1.06-.22a1.9 1.9 0 0 1 -3.25 1 2 2 0 0 1 .51-3 1.85 1.85 0 0 1 2.76 2zm-9.27-5.45c-.46.08-3.25 3.29-3.38 3.58s.38.42.63.46a21 21 0 0 0 3.29-3.58c.1-.33-.26-.51-.52-.46zm-2.21-5.17c-.21-.21-4.81 1.45-4.88 1.84s.17.87.34.91 4.5-1.79 4.75-1.91.02-.63-.21-.84zm-.58-3.58c.25-.08.12-.38-.05-.54a46.89 46.89 0 0 0 -5.58-1c-.21.12-.25.87-.25.87s5.65.75 5.9.67zm.25-4.67c.16 0 .41-.46.41-.71s-4.36-1.74-4.52-1.74-.46.75-.29.87 4.25 1.54 4.42 1.58zm4.93-4.45c.21-.29-2.83-3.83-3-4s-.95.43-.92.58 3.13 3.71 3.25 3.83.46-.12.67-.41zm-16 26.21a19.41 19.41 0 0 0 -.08 3.5c0 .25.79.25 1.08 0s.13-3.29.08-3.5-.81-.31-1.12-.01zm18.25 8.67c-.25.12 0 2.92.13 3.25s.41 0 .7-.08.05-2.75 0-3.09-.68-.2-.87-.09zm27.15-9.09c0-.46-1.59-1.55-3.29-1.55s-3.38.17-3.67.55 0 3.79 0 4-11.85 6.41-11.85 6.41a11.74 11.74 0 0 0 -.25-2.66c-.25-.55-2.3-.67-2.3-.67v-1.92a24 24 0 0 0 8.75-3.29c4.54-2.79 6.29-7.75 7.41-10.58s2.46-13.92-3.71-20.46-11.78-7.13-19.03-5.88-13.06 6.96-14.67 11.71-2.51 11.28 1.17 18c5.5 10.04 13.44 10.42 13.44 10.42l.12 2a5.07 5.07 0 0 0 -2.12.33c-.83.42-.75 2.8-.75 2.8l-9.25-4.34s-.08-5-.17-5.5-1.06-1.67-3.83-1.71-4.17.88-4.42 1.13.42 15.87.42 16.08 1.08.63 1.08.63 1.67 4.33 3.5 4.2 2.79-4.75 2.79-4.75.88 0 1-.37a27.49 27.49 0 0 0 0-3.75s1 .37 3 1.37 6.92 3.88 6.92 3.88a14.7 14.7 0 0 0 .33 2.92c.3.91 10.38.08 10.75-.13s.13-3 .13-3l10.89-5.66s.3 5.71.38 6.13 1.25.25 1.25.25 1.62 4.41 2.79 4.46 1.88-4.92 1.88-4.92a4.54 4.54 0 0 0 1.7-.46c.38-.38-.39-15.22-.39-15.67zm-43.31 18.58c-.63.12-2.25-2.75-2.25-3.42 0-.43 1.25-.71 2.29-.66s1.58.25 1.58.5-1 3.45-1.62 3.58zm1.87-5.75a14.64 14.64 0 0 0 -3 .25c-1 .33-1.71.62-1.71.62s-.79-13.66-.54-14 1.79-.62 3-.58 2 .58 2.13.92.5 12.71.12 12.79zm11.25 1.25c-.17.08-.71-.25-.71-.25a12.3 12.3 0 0 0 -.16-2.62c-.21-.08-1-.08-1 .09s.37 2.33.16 2.25-1.2-.55-1.2-.71.2-1.42 0-1.5-.92-.46-.88-.25 0 1.29 0 1.29-5.66-2.25-5.66-2.5a22.42 22.42 0 0 1 0-3.38c.24-.18 9.29 4.09 9.29 4.3a22.15 22.15 0 0 1 .16 3.28zm-5.75-16.21c-4-4.67-6.83-11.29-6-16.79s5.13-14.21 17-15.33c6-.57 11.79 1.08 15.59 6.08s3.87 15.29 1.62 20-5.33 9.25-10.67 10.38-13.54.33-17.54-4.34zm13.58 8.34c-.12 0-1.79-.17-2.75-.13s-1.54.21-1.58 0-.33-1.67-.08-1.83 1 .16 2.37.29 1.88-.29 2 0a3.66 3.66 0 0 1 .04 1.67zm2.36 11a2 2 0 0 1 -.92 0c-.12-.08-2-2.91-2.17-2.91s-.58.25-.54.37a18.48 18.48 0 0 1 1.48 2.54 2.67 2.67 0 0 1 -1.29 0 14.66 14.66 0 0 0 -1.37-2c-.21 0-.92.29-.8.5s.8 1.42.63 1.46-2.58.33-2.88 0-.83-8.91-.66-9.16 7.83-.42 7.91 0a20.13 20.13 0 0 1 .13 3.41c-.13-.08-1-1-1.13-.83s-.41.58-.29.71 1.54 1.08 1.59 1.41.08 1.38.08 1.38-1.54-1.88-1.77-1.8-.54.58-.38.75a33.48 33.48 0 0 1 2.29 2.66c.09.3.32 1.51.09 1.51zm12.75-8.41a66.7 66.7 0 0 1 -7.54 4c0-.21.16-2.29 0-2.38s-.66-.16-.66 0 .21 2.71 0 2.75-1 .75-1 .5a18.79 18.79 0 0 0 -.17-2.83c-.12 0-1 .29-1 .54s.38 2.63.13 2.79a9.94 9.94 0 0 1 -1 .5s-.13-4.16.16-4.25 10.92-6.12 11-5.87a35.5 35.5 0 0 1 .06 4.24zm4 10.58c-.42 0-1.5-2.75-1.54-3.21s1.54-.21 1.91-.25a1.15 1.15 0 0 1 .75.29s-.73 3.12-1.14 3.16zm1.54-4.62c-.33-.13-1.92-1.59-2.29-1.46a.66.66 0 0 0 -.38.87 6.4 6.4 0 0 0 .84.67s-1.55.54-1.71.21-.46-14.75-.25-15.09 1.62-.08 2.62.13a4.73 4.73 0 0 1 1.34.42s.16 10.7 0 10.54-1-1.17-1.25-1.17-.5.71-.42.88 1.58 1.12 1.63 1.37a4.4 4.4 0 0 1 0 .75s-1.75-1.46-1.92-1.37-.42.7-.21.87a17.84 17.84 0 0 1 2.25 2c.02.2.06.49-.27.37z" fill="#1d1d1b"/></svg>