<?xml version="1.0" encoding="utf-8"?><!-- Uploaded to: SVG Repo, www.svgrepo.com, Generator: SVG Repo Mixer Tools -->
<svg width="800px" height="800px" viewBox="0 0 64 64" xmlns="http://www.w3.org/2000/svg"><path d="m11.84 21.05c-.07-.12-.33-.71-.6-.53a1.72 1.72 0 0 0 -.34 1.56 2.87 2.87 0 0 0 1.22 1.31c.12 0 .31-.25.37-.43s-.34-.41-.59-.94 0-.84-.06-.97zm3.56-6.59a4.75 4.75 0 0 0 -1.4 1.34c0 .13.63.56.85.59s.28-.37.65-.75a1 1 0 0 1 1-.09s.47-.5.38-.78a1.28 1.28 0 0 0 -1.48-.31zm5.84 4.43a21.24 21.24 0 0 1 -.62 2.82c-.5 1.12-1.6 2.4-1.6 2.62s.38.28.66.22.81-.66 1.5-2a10.31 10.31 0 0 0 .94-3.38c-.03-.17-.88-.28-.88-.28zm1.38 14.19a33.22 33.22 0 0 0 -2.62 3.31 1.91 1.91 0 0 0 1 .19 17.34 17.34 0 0 0 2.28-3.19c-.07-.18-.54-.31-.66-.31zm36.83-11.29a22.9 22.9 0 0 0 -3.71-.25 3 3 0 0 0 -.33-1.08 2.87 2.87 0 0 0 -1-.71l-.67-7.46s1.75-.79 1.71-2.17a2.31 2.31 0 0 0 -2.83-2.29 2.43 2.43 0 0 0 -2 2l-6 1.63a3.22 3.22 0 0 0 -1.29-1.21 2.32 2.32 0 0 0 -3.25 1.91 3.4 3.4 0 0 0 1.37 2.84l-1.71 11.87a4 4 0 0 0 -2.5 1 3.8 3.8 0 0 0 -1.16 2.63s-1.3-.13-2.3-.21-3.41-.33-3.41-.33a4.79 4.79 0 0 0 -.21-1.13c-.17-.46-1-.92-1-.92l1-4.29a2.12 2.12 0 0 0 .92-1 1.7 1.7 0 0 0 -1.3-2.37 1.93 1.93 0 0 0 -2.29.75l-1.49-.38s.55-4.5-1-6.54-6-3-9.08-2.75-5.17 4-5.17 4l-1.15-.5a2.94 2.94 0 0 0 -.47-2.22c-.75-1-3.1-.28-3.85.69s-1.09 2.44.32 3.38a2.81 2.81 0 0 0 2.87 0l1 .75a7.94 7.94 0 0 0 -1.13 1.87 6.41 6.41 0 0 0 0 4.41 9.74 9.74 0 0 0 3.84 4.29c1.56.69 6.12 2 9.5-.19a10.06 10.06 0 0 0 4.09-6l1.57.25a3.25 3.25 0 0 0 .31.88 2.35 2.35 0 0 0 1 .93l-.81 3.94a3.35 3.35 0 0 0 -1.35.69 2.89 2.89 0 0 0 -1 1.34 29.22 29.22 0 0 0 -3 .16 5.81 5.81 0 0 0 -3.28 1.75c-1.09 1-4.5 6.69-4.5 6.69a7.62 7.62 0 0 0 -1.81.5 10 10 0 0 0 -4.9 4.36 8.64 8.64 0 0 0 1 9.75c2.07 2.34 5.44 2.81 14.29 3s16.37.1 20.59.1 6.44-.41 8.09-1.85a8.8 8.8 0 0 0 2.57-9.28c-1.32-4.62-4.66-5.16-4.66-5.16a19.62 19.62 0 0 0 -1.69-2.75 61.92 61.92 0 0 0 -4.65-5.5 9.37 9.37 0 0 0 -.38-2.84 3.9 3.9 0 0 0 -2.25-2l1.69-11.25a3.13 3.13 0 0 0 1.94-.91 3.06 3.06 0 0 0 .65-2.15l5.52-1.46s0 .18.28.84 1.56.53 1.56.53l.5 7.31a3.57 3.57 0 0 0 -1.21.79 4.61 4.61 0 0 0 -.39 1.86s-2.25-.08-2.75 0-.46.42-.54.67 2 6.87 2 6.87 1 .09 1.21-.21a31.33 31.33 0 0 0 .71-4.66c0-.21 3.58-.42 3.58-.42s.79 5.17 1 5.38 1.25.12 1.37-.17 1.55-7.79 1.42-8zm-51-7a1.39 1.39 0 0 1 -2.25 1.09c-1.34-.75 0-2.37.72-2.5 1.33-.28 1.7.39 1.57 1.36zm7.29-1.79c1.41-.38 2.94-.31 3.22 1.47a12.79 12.79 0 0 1 -.66 4.62l-6.09-3.15s2.13-2.58 3.53-2.94zm-5 3.65c.21 0 5.81 2.66 5.81 3s-.65 1.88-1.06 1.82a55 55 0 0 1 -4.75-4.19c-.31-.28-.31-.67-.03-.64zm-.09 7.22c-2.1-1.59 0-4.59.25-4.75 0 0 4.68 3.94 4.62 4.07s-2.81 2.27-4.9.67zm12.35.06c-1.78 2.59-3.4 3.18-5.12 3.31a8.72 8.72 0 0 1 -3.41-.31c-.41-.19-.72-.66-.37-.79a11 11 0 0 0 5.09-4.81c1.75-3.31 1.78-6.94 2-7.19a3.25 3.25 0 0 1 2.75 2.57c.49 2.12.83 4.62-.94 7.22zm28.87 20.15c1.59 2.81.56 7.5-1.88 9.1s-17.9 1.21-24.31 1-12.59-.18-14.94-2.13-2.31-5.31-.74-7.66 3.63-4.46 10.16-4.84a204.14 204.14 0 0 1 22.31.5c5.71.66 7.8 1.22 9.4 4.03zm-8.63-10.15c1.06 1.43 3.35 4.62 3.1 4.65a1.88 1.88 0 0 1 -.75-.09c-.16-.06-2.82-3.5-3.07-3.53s-1 .28-.87.5 2.78 2.81 2.59 2.84a5.2 5.2 0 0 1 -1.37 0c-.16-.09-2.16-2.81-2.35-2.88s-1.09.22-.93.44 2.37 2.35 2.18 2.44a2.14 2.14 0 0 1 -1.15 0 23.56 23.56 0 0 0 -1.75-2.13c-.28-.06-1 .19-.85.47s1.32 1.53 1.16 1.53l-22.09-.17c.31-.35 3.31-5.38 5.56-6.13s12.53.07 15.75.38 3.78.24 4.84 1.68zm-.94-3.1a16.61 16.61 0 0 1 -5-.53 2.73 2.73 0 0 1 2.78-2.41c2.19.11 2.72 2.75 2.22 2.94zm-.3-16.62c-.81-.57-.87-2.6.35-3 .68-.23 1.59.34 1.62 1.5s-1.13 2.06-1.97 1.5zm10.13-3.13c-.44-.56-.16-2.19.94-2.34.68-.1 1.31.94 1.06 1.75s-1.54 1.15-1.98.59zm1.44 9.5c.49-.07 1 .56.9 1s-1.5.44-1.65.28a.86.86 0 0 1 .77-1.28zm3.9 5.91c-.22-.06-.34-3-.69-3.06a33.13 33.13 0 0 0 -5.87.62c0 .22 0 2.56-.31 2.59s-.78-3-.78-3.34c0 0 3-.34 5.25-.47s3.31-.25 3.28 0-.64 3.72-.86 3.66zm-41.76 14.94c-5 1.28-6 5.65-4.75 8.21s3 3.16 8.75 3.63 21 .31 25.78 0 5.69-2 6.1-4.22.53-4.84-1.75-6.44-7.66-1.4-12.94-1.47-19.04-.26-21.19.29zm6.53 7.12c-1 3.72-6.5 4.69-9 2.25s-2.34-7.75 4.07-8.31a4.67 4.67 0 0 1 4.93 6.06zm23.63-6a4.67 4.67 0 0 1 4.9 6.06c-1 3.72-6.5 4.69-9 2.25s-2.31-7.72 4.1-8.28zm-9.16 6.06c-1 3.72-6.5 4.69-9 2.25s-2.34-7.75 4.06-8.31a4.68 4.68 0 0 1 4.94 6.09zm-20.81-3a2 2 0 0 0 -.13 3.13c1.35 1.34 3.94.19 3.41-1.63a2.18 2.18 0 0 0 -3.28-1.47zm14.5.13a2 2 0 0 0 -.13 3.12c1.35 1.35 3.94.19 3.41-1.62a2.17 2.17 0 0 0 -3.28-1.47zm17.6 1.4a2.18 2.18 0 0 0 -3.28-1.5 2 2 0 0 0 -.12 3.13c1.33 1.34 3.92.23 3.4-1.63z" fill="#1d1d1b"/></svg>