<?xml version="1.0" ?>
<!-- Uploaded to: SVG Repo, www.svgrepo.com, Generator: SVG Repo Mixer Tools -->
<svg width="800px" height="800px" viewBox="0 0 64 64" xmlns="http://www.w3.org/2000/svg">
<g id="a"/>
<g id="b"/>
<g id="c"/>
<g id="d"/>
<g id="e"/>
<g id="f"/>
<g id="g"/>
<g id="h"/>
<g id="i"/>
<g id="j"/>
<g id="k"/>
<g id="l"/>
<g id="m"/>
<g id="n"/>
<g id="o"/>
<g id="p"/>
<g id="q"/>
<g id="r"/>
<g id="s"/>
<g id="t"/>
<g id="u"/>
<g id="v"/>
<g id="w"/>
<g id="x"/>
<g id="y"/>
<g id="a`"/>
<g id="aa"/>
<g id="ab"/>
<g id="ac"/>
<g id="ad"/>
<g id="ae"/>
<g id="af"/>
<g id="ag"/>
<g id="ah"/>
<g id="ai"/>
<g id="aj"/>
<g id="ak">
<path d="M18.68,41.84v-2.62l-2.36-1.31c-.13,.12-.24,.27-.29,.45l-1.19,3.71c-.09,.27,.15,.54,.43,.48l3.41-.71Z" fill="#fca65c" id="al"/>
<path d="M16.33,37.92l.89,4.23,1.46-.3v-1.17l-2.36-2.75Z" fill="#f5934a" id="am"/>
<path d="M19.77,42.41l2.42-1.78,.42-3.81-5.75,.83c-.2,.03-.39,.12-.54,.26l2.36,3.93,1.09,.57Z" fill="#feb87e" id="an"/>
<path d="M24.85,55.36l-2.59-.29-1.2,3.06c.1,.1,.24,.17,.4,.17h6.17c.22,0,.32-.27,.15-.42l-2.93-2.53Z" fill="#feb87e" id="ao"/>
<path d="M35.22,47.78l3.26-6.22-1.99-7.36c-.04,.37-.33,.67-.7,.72l-13.17,1.91,2.37,9.2,3.74,1.33,6.5,.42Z" fill="#feb87e" id="ap"/>
<path d="M39.93,55.81l-1.58,.47v2.56c.15,.1,.34,.16,.54,.16h6.46c.16,0,.22-.22,.07-.3l-5.49-2.89Z" fill="#fca65c" id="aq"/>
<path d="M39.93,55.81l-1.15,.35-.45,2.68,3.26-2.15-1.67-.88Z" fill="#f5934a" id="ar"/>
<path d="M43.89,40.45l-6.2,.34-2.48,6.99,2.73,10.66c.09,.17,.23,.31,.39,.41l1.59-3.03,3.81-14.9c.05-.16,.11-.31,.16-.47Z" fill="#feb87e" id="as"/>
<path d="M43.61,8.67l-1.24,3.93,1.35,2.1h4.83c.35,0,.64-.29,.64-.64v-2.04c0-.39-.22-.75-.57-.93l-4.44-2.28c-.18-.09-.37-.15-.57-.15Z" fill="#feb87e" id="at"/>
<path d="M43.61,8.68v.04c-.02,.06-.4,2.59-.71,4.7l.82,1.28h1.66l-1.77-6.02Z" fill="#fca65c" id="au"/>
<path d="M43.02,8.78l-4.22,1.79c-.36,.15-.61,.49-.66,.88l-1.66,22.75-1.26,13.58,8.68-7.33c.08-.24,.13-.48,.13-.73l-.31-25.01-.11-6.03c-.2,0-.4,.03-.59,.11h0Z" fill="#fdc99c" id="av"/>
<path d="M28.72,47.36l-6.11-10.53-2.84,5.59,1.14,15.25c-.02,.18,.04,.34,.16,.46l3.79-2.77h0l3.87-8.01Z" fill="#fdc99c" id="aw"/>
<path d="M38.41,9.64c-.7,.29-1.18,.95-1.27,1.73l-1.65,22.58-18.78,2.72c-.77,.11-1.4,.64-1.64,1.38l-1.19,3.71c-.15,.46-.04,.98,.28,1.34,.33,.36,.82,.53,1.3,.43l3.06-.64,.28,.15,1.09,14.63c-.02,.4,.12,.8,.39,1.11,.3,.34,.72,.53,1.17,.53h6.17c.52,0,.98-.32,1.16-.81,.18-.49,.04-1.03-.35-1.37l-2.35-2.02,3.24-6.71,5.1,.33,2.55,9.96c.02,.08,.05,.16,.09,.23,.36,.67,1.06,1.09,1.82,1.09h6.46c.53,0,1-.36,1.12-.88s-.11-1.05-.59-1.3l-4.8-2.52,3.59-14.05c.18-.52,.35-.98,.34-1.55l-.29-24h3.81c.9,0,1.64-.74,1.64-1.64v-2.04c0-.77-.43-1.47-1.11-1.82l-4.43-2.28c-.66-.34-1.37-.31-1.94-.09l-1.19-3.19c-.19-.52-.77-.78-1.29-.59-.52,.19-.78,.77-.59,1.29l.1,.28-1.06,.07-.91-1.28c-.32-.45-.95-.55-1.39-.23-.45,.32-.55,.95-.23,1.4l1.24,1.74c.19,.26,.49,.42,.81,.42,.02,0,.05,0,.07,0l2.21-.15,.38,1.03-2.44,1.03Zm.78,1.84l3.45-1.46,.39,29.71s-.04,.12-.04,.18l-6.54,5.53,2.75-33.95Zm-14.97,26.12l11.09-1.61-1,10.72-4.99-.32-5.1-8.79Zm-4.86,3.42l-1.5-2.5,2.99-.43-1.49,2.93Zm-2.85-.85l.59,.98-.98,.2,.39-1.19Zm7.38,17.14l.91-.67,.77,.67h-1.69Zm.17-2.6l-2.25,1.65-1.02-13.73,1.88-3.7,4.92,8.48-3.53,7.3Zm17.84,3.28h-1.97l.42-.82,1.55,.82Zm-2.91-2.52l-.52,.98-2.12-8.3,5.78-4.88-3.14,12.2ZM48.18,13.7h-3.48l-.06-3.52,3.54,1.84v1.67Z"/>
</g>
<g id="ax"/>
<g id="ay"/>
<g id="b`"/>
<g id="ba"/>
<g id="bb"/>
<g id="bc"/>
<g id="bd"/>
<g id="be"/>
<g id="bf"/>
<g id="bg"/>
<g id="bh"/>
<g id="bi"/>
<g id="bj"/>
</svg>