<svg width="1024" height="720" viewBox="0 0 1024 720" xmlns="http://www.w3.org/2000/svg"><rect width="1920" height="1080" fill="#ededed"/><path d="M 0,1080 C 0,1080 0,180 0,180 C 106.688995215311,184.91866028708134 213.377990430622,189.83732057416267 358,197 C 502.622009569378,204.16267942583733 685.177033492823,213.56937799043064 810,193 C 934.822966507177,172.43062200956936 1001.913875598086,121.8851674641148 1100,135 C 1198.086124401914,148.1148325358852 1327.1674641148327,224.88995215311007 1469,243 C 1610.8325358851673,261.1100478468899 1765.4162679425835,220.55502392344496 1920,180 C 1920,180 1920,1080 1920,1080 Z" fill="#ffffff" opacity="0.09999999999999999"/><path d="M 0,1080 C 0,1080 0,360 0,360 C 95.3205741626794,365.27272727272725 190.6411483253588,370.54545454545456 328,374 C 465.3588516746412,377.45454545454544 644.7559808612441,379.0909090909091 789,372 C 933.2440191387559,364.9090909090909 1042.3349282296651,349.09090909090907 1172,332 C 1301.6650717703349,314.90909090909093 1451.9043062200956,296.54545454545456 1580,301 C 1708.0956937799044,305.45454545454544 1814.0478468899523,332.72727272727275 1920,360 C 1920,360 1920,1080 1920,1080 Z" fill="#ffffff" opacity="0.19999999999999998"/><path d="M 0,1080 C 0,1080 0,540 0,540 C 104.58373205741626,505.2057416267943 209.1674641148325,470.4114832535886 323,493 C 436.8325358851675,515.5885167464114 559.9138755980861,595.5598086124401 719,597 C 878.0861244019139,598.4401913875599 1073.1770334928228,521.3492822966507 1194,515 C 1314.8229665071772,508.6507177033493 1361.3779904306218,573.0430622009569 1470,589 C 1578.6220095693782,604.9569377990431 1749.311004784689,572.4784688995215 1920,540 C 1920,540 1920,1080 1920,1080 Z" fill="#ffffff" opacity="0.3"/><path d="M 0,1080 C 0,1080 0,720 0,720 C 153.66507177033498,719.6076555023924 307.33014354066995,719.2153110047847 449,716 C 590.66985645933,712.7846889952153 720.3444976076555,706.7464114832537 820,726 C 919.6555023923445,745.2535885167463 989.2918660287082,789.799043062201 1113,772 C 1236.7081339712918,754.200956937799 1414.488038277512,674.0574162679427 1558,655 C 1701.511961722488,635.9425837320573 1810.755980861244,677.9712918660287 1920,720 C 1920,720 1920,1080 1920,1080 Z" fill="#ffffff" opacity="0.39999999999999997"/><path d="M 0,1080 C 0,1080 0,900 0,900 C 104.16267942583733,894.4019138755981 208.32535885167465,888.8038277511962 344,866 C 479.67464114832535,843.1961722488038 646.8612440191388,803.1866028708133 779,832 C 911.1387559808612,860.8133971291867 1008.2296650717703,958.4497607655503 1144,966 C 1279.7703349282297,973.5502392344497 1454.2200956937797,891.0143540669857 1590,865 C 1725.7799043062203,838.9856459330143 1822.8899521531102,869.4928229665072 1920,900 C 1920,900 1920,1080 1920,1080 Z" fill="#ffffff" opacity="0.49999999999999994"/></svg>
